<svg width="158" height="202" viewBox="0 0 158 202" fill="none" xmlns="http://www.w3.org/2000/svg">
<rect x="2.5" y="2.5" width="153" height="197" fill="#DFF0FE" stroke="#4788C7" stroke-width="5"/>
<rect x="105.5" y="2.5" width="50" height="51" fill="white" stroke="#4788C7" stroke-width="5"/>
<rect x="107.495" y="5.55933" width="2.23033" height="62.7766" transform="rotate(-45 107.495 5.55933)" stroke="#4788C7" stroke-width="2.23033"/>
<path d="M42.0547 131.684C52.2266 131.684 59.5 125.504 59.9648 116.125H50.3125C49.6836 120.746 46.4844 123.645 42.082 123.645C36.5586 123.645 33.1133 118.969 33.1133 111.23C33.1133 103.574 36.5859 98.8984 42.0547 98.8984C46.457 98.8984 49.7656 101.961 50.2578 106.609H59.9102C59.6094 97.2852 52.0352 90.8594 42.0547 90.8594C30.2969 90.8594 22.8867 98.3789 22.8867 111.258C22.8867 124.164 30.2422 131.684 42.0547 131.684ZM63.4102 119.57C63.5195 127.227 69.7266 131.684 79.7891 131.684C89.9609 131.684 96.4414 126.68 96.4414 118.832C96.4414 112.598 92.9414 109.07 85.1484 107.566L80.0352 106.609C75.9062 105.762 74.1562 104.586 74.1562 102.453C74.1562 100.047 76.4805 98.4609 79.9805 98.4609C83.5898 98.4609 86.2422 100.184 86.4336 103.055H95.6758C95.5664 95.6445 89.7422 90.8594 79.8711 90.8594C70.7383 90.8594 64.1758 95.7812 64.1758 103.438C64.1758 109.426 67.9219 113.363 75.1953 114.758L80.3633 115.77C84.8477 116.699 86.5156 117.766 86.5156 119.953C86.5156 122.332 83.9727 124.082 80.0625 124.082C76.3438 124.082 73.3086 122.277 72.9531 119.57H63.4102ZM123.512 131L136.09 91.543H125.098L117.523 121.184H117.305L109.703 91.543H98.3008L110.879 131H123.512Z" fill="#4788C7"/>
</svg>
