<svg width="158" height="202" viewBox="0 0 158 202" fill="none" xmlns="http://www.w3.org/2000/svg">
<rect x="2.5" y="2.5" width="153" height="197" fill="#FEDFDF" stroke="#C74747" stroke-width="5"/>
<rect x="105.5" y="2.5" width="50" height="51" fill="white" stroke="#C74747" stroke-width="5"/>
<rect x="107.495" y="5.55933" width="2.23033" height="62.7766" transform="rotate(-45 107.495 5.55933)" stroke="#C74747" stroke-width="2.23033"/>
<path d="M21.4883 106.82C21.4883 112.797 25.5117 116.527 31.8398 116.527C38.3047 116.527 42.1719 112.992 42.1719 106.664V87.8164H35.0234V106.625C35.0234 109.125 33.8711 110.473 31.7617 110.473C29.7109 110.473 28.4023 109.066 28.3828 106.82H21.4883ZM45.8633 107.836C45.9414 113.305 50.375 116.488 57.5625 116.488C64.8281 116.488 69.457 112.914 69.457 107.309C69.457 102.855 66.957 100.336 61.3906 99.2617L57.7383 98.5781C54.7891 97.9727 53.5391 97.1328 53.5391 95.6094C53.5391 93.8906 55.1992 92.7578 57.6992 92.7578C60.2773 92.7578 62.1719 93.9883 62.3086 96.0391H68.9102C68.832 90.7461 64.6719 87.3281 57.6211 87.3281C51.0977 87.3281 46.4102 90.8438 46.4102 96.3125C46.4102 100.59 49.0859 103.402 54.2812 104.398L57.9727 105.121C61.1758 105.785 62.3672 106.547 62.3672 108.109C62.3672 109.809 60.5508 111.059 57.7578 111.059C55.1016 111.059 52.9336 109.77 52.6797 107.836H45.8633ZM85.9609 87.3281C77.4258 87.3281 72.0352 92.9336 72.0352 101.918C72.0352 110.902 77.4062 116.488 85.9609 116.488C94.4961 116.488 99.8672 110.902 99.8672 101.918C99.8672 92.9336 94.4961 87.3281 85.9609 87.3281ZM85.9609 93.1484C89.9648 93.1484 92.582 96.5469 92.582 101.918C92.582 107.27 89.9648 110.668 85.9609 110.668C81.9375 110.668 79.3398 107.27 79.3398 101.918C79.3398 96.5469 81.957 93.1484 85.9609 93.1484ZM110.16 116V99.457H110.316L122.328 116H127.992V87.8164H121.195V104.203H121.039L109.086 87.8164H103.363V116H110.16Z" fill="#C74747"/>
</svg>
