<svg width="78" height="23" viewBox="0 0 78 23" fill="none" xmlns="http://www.w3.org/2000/svg">
<path d="M0.4375 21.1875C1.65625 21.1771 2.44792 20.9635 2.8125 20.5469C3.17708 20.1198 3.35938 19.4844 3.35938 18.6406V3.45312C3.35938 2.57812 3.15104 2.00521 2.73438 1.73438C2.31771 1.45312 1.57812 1.27083 0.515625 1.1875V0.375H8.57812L14.875 15.1875H15.1406L21.4062 0.375H29.4688V1.1875C28.3854 1.27083 27.6458 1.47396 27.25 1.79688C26.8542 2.10938 26.6562 2.88542 26.6562 4.125V18.2656C26.6562 19.4427 26.8542 20.2135 27.25 20.5781C27.6458 20.9427 28.3854 21.1458 29.4688 21.1875V22H18.8438V21.1875C19.7917 21.1562 20.5052 21 20.9844 20.7188C21.4635 20.4271 21.7031 19.7969 21.7031 18.8281V3.1875H21.4688L13.625 22H12.7656L4.84375 3.5625H4.70312V18.0469C4.70312 19.1094 4.90104 19.8854 5.29688 20.375C5.69271 20.8646 6.56771 21.1354 7.92188 21.1875V22H0.4375V21.1875ZM37.2344 20.1719C37.7552 20.1719 38.2396 20.0156 38.6875 19.7031C38.9375 19.5156 39.2344 19.224 39.5781 18.8281V14.1562C38.724 14.3646 37.974 14.6927 37.3281 15.1406C36.2344 15.901 35.6875 16.8698 35.6875 18.0469C35.6875 18.7448 35.8438 19.276 36.1562 19.6406C36.4792 19.9948 36.8385 20.1719 37.2344 20.1719ZM31.0312 19.0156C31.0312 17.5781 31.724 16.4375 33.1094 15.5938C34.4948 14.75 36.6667 13.901 39.625 13.0469V10.7188C39.625 9.77083 39.4219 9.07292 39.0156 8.625C38.6198 8.16667 37.9115 7.9375 36.8906 7.9375C36.3177 7.9375 35.8438 8.04688 35.4688 8.26562C35.1042 8.47396 34.9219 8.73958 34.9219 9.0625C34.9219 9.1875 34.9427 9.29167 34.9844 9.375C35.026 9.45833 35.0885 9.54688 35.1719 9.64062L35.3594 9.85938C35.5052 10.0365 35.6198 10.2344 35.7031 10.4531C35.7969 10.6615 35.8438 10.8854 35.8438 11.125C35.8438 11.7292 35.6406 12.1979 35.2344 12.5312C34.8385 12.8542 34.375 13.0156 33.8438 13.0156C33.2292 13.0156 32.7031 12.8333 32.2656 12.4688C31.8385 12.1042 31.625 11.5781 31.625 10.8906C31.625 9.66146 32.2031 8.6875 33.3594 7.96875C34.5156 7.25 35.9375 6.89062 37.625 6.89062C39.4375 6.89062 40.9531 7.23958 42.1719 7.9375C43.3802 8.64583 43.9844 9.94792 43.9844 11.8438V19.5938C43.9844 19.8229 44.0417 20.0208 44.1562 20.1875C44.2812 20.3438 44.4167 20.4219 44.5625 20.4219C44.6875 20.4219 44.7969 20.401 44.8906 20.3594C44.9948 20.3073 45.151 20.1771 45.3594 19.9688L45.8438 20.6406C45.2188 21.3698 44.526 21.8802 43.7656 22.1719C43.2865 22.3594 42.7812 22.4531 42.25 22.4531C41.3021 22.4531 40.6094 22.1771 40.1719 21.625C39.9219 21.3125 39.7396 20.849 39.625 20.2344C38.7396 21.1198 37.7396 21.7448 36.625 22.1094C35.9479 22.3385 35.2812 22.4531 34.625 22.4531C33.75 22.4531 32.9323 22.1771 32.1719 21.625C31.4115 21.0625 31.0312 20.1927 31.0312 19.0156ZM46.7969 21.2344C47.4115 21.1615 47.8385 21.0156 48.0781 20.7969C48.3177 20.5781 48.4479 20.1562 48.4688 19.5312L48.5 18.5938V9.89062C48.5 9.22396 48.3854 8.77083 48.1562 8.53125C47.9271 8.29167 47.474 8.13021 46.7969 8.04688V7.26562H52.875V9.78125C53.5521 8.89583 54.224 8.19271 54.8906 7.67188C55.5573 7.15104 56.3281 6.89062 57.2031 6.89062C57.8594 6.89062 58.4479 7.10417 58.9688 7.53125C59.5 7.94792 59.7656 8.5625 59.7656 9.375C59.7656 10 59.5781 10.5156 59.2031 10.9219C58.8385 11.3281 58.3594 11.5312 57.7656 11.5312C57.0885 11.5312 56.5 11.2135 56 10.5781C55.5104 9.94271 55.1667 9.625 54.9688 9.625C54.5417 9.625 54.1094 9.89062 53.6719 10.4219C53.2448 10.9427 53.0312 11.6927 53.0312 12.6719V18.7188C53.0312 19.7812 53.1823 20.4479 53.4844 20.7188C53.7969 20.9792 54.4115 21.151 55.3281 21.2344V22H46.7969V21.2344ZM60.9531 21.2344C61.5156 21.099 61.9115 20.9219 62.1406 20.7031C62.3802 20.474 62.5 20.0052 62.5 19.2969V3C62.5 2.32292 62.3906 1.88021 62.1719 1.67188C61.9531 1.46354 61.5469 1.29167 60.9531 1.15625V0.375H66.9531V14.1562L71.0156 10.0781C71.2552 9.83854 71.4271 9.61458 71.5312 9.40625C71.6354 9.1875 71.6875 9.01562 71.6875 8.89062C71.6875 8.56771 71.5417 8.35417 71.25 8.25C70.9688 8.14583 70.4844 8.0625 69.7969 8V7.26562H76.6562V8C76 8.08333 75.4792 8.19792 75.0938 8.34375C74.4062 8.61458 73.7396 9.07292 73.0938 9.71875L70.6094 12.2344L76.7969 20.75C76.9219 20.9271 77.0417 21.0469 77.1562 21.1094C77.2708 21.1615 77.4219 21.2031 77.6094 21.2344V22H70.1406V21.2344C70.599 21.2135 70.9323 21.1562 71.1406 21.0625C71.3594 20.9688 71.4688 20.8229 71.4688 20.625C71.4688 20.5208 71.4219 20.3802 71.3281 20.2031C71.2448 20.0156 71.0312 19.6771 70.6875 19.1875L67.6562 14.8906L66.9531 15.6719V19.2969C66.9531 20.0156 67.0417 20.4948 67.2188 20.7344C67.3958 20.974 67.849 21.1406 68.5781 21.2344V22H60.9531V21.2344Z" fill="black"/>
</svg>
