<svg width="76" height="30" viewBox="0 0 76 30" fill="none" xmlns="http://www.w3.org/2000/svg">
<path d="M0.578125 22.1875C1.45312 22.1562 2.07812 22.0417 2.45312 21.8438C3.08854 21.5104 3.40625 20.875 3.40625 19.9375V4.45312C3.40625 3.51562 3.10417 2.88542 2.5 2.5625C2.14583 2.36458 1.50521 2.23958 0.578125 2.1875V1.375H11.7656V2.1875C10.4635 2.22917 9.59375 2.41146 9.15625 2.73438C8.72917 3.05729 8.51562 3.85417 8.51562 5.125V20.2344C8.51562 20.9427 8.69792 21.4115 9.0625 21.6406C9.4375 21.8698 10.1615 21.9844 11.2344 21.9844C13.1615 21.9844 14.776 21.5625 16.0781 20.7188C17.3906 19.8646 18.5208 18.2083 19.4688 15.75H20.4062L19.1094 23H0.578125V22.1875ZM22.0469 15.6719C22.0469 13.4427 22.7292 11.5833 24.0938 10.0938C25.4688 8.60417 27.1927 7.85938 29.2656 7.85938C31.3802 7.85938 33.1094 8.61979 34.4531 10.1406C35.8073 11.6615 36.4844 13.5052 36.4844 15.6719C36.4844 17.8073 35.8177 19.6458 34.4844 21.1875C33.151 22.7188 31.4115 23.4844 29.2656 23.4844C27.1823 23.4844 25.4583 22.7396 24.0938 21.25C22.7292 19.75 22.0469 17.8906 22.0469 15.6719ZM26.75 15.6719C26.75 17.9115 26.8646 19.4792 27.0938 20.375C27.4583 21.7604 28.1823 22.4531 29.2656 22.4531C30.2969 22.4531 30.974 21.9219 31.2969 20.8594C31.6198 19.7969 31.7812 18.0677 31.7812 15.6719C31.7812 13.2865 31.6094 11.5625 31.2656 10.5C30.9323 9.42708 30.2708 8.89062 29.2812 8.89062C28.1979 8.89062 27.474 9.58333 27.1094 10.9688C26.8698 11.8958 26.75 13.4635 26.75 15.6719ZM42.75 13.0469C42.75 14.276 42.8542 15.1875 43.0625 15.7812C43.375 16.7188 43.974 17.1875 44.8594 17.1875C45.6615 17.1875 46.2135 16.8385 46.5156 16.1406C46.8177 15.4323 46.9688 14.401 46.9688 13.0469C46.9688 11.6094 46.8073 10.5625 46.4844 9.90625C46.1719 9.25 45.6302 8.92188 44.8594 8.92188C44.0156 8.92188 43.4531 9.27604 43.1719 9.98438C42.8906 10.6823 42.75 11.7031 42.75 13.0469ZM40.8906 26.4844C40.8906 27.1406 41.2396 27.6562 41.9375 28.0312C42.6458 28.4062 43.6667 28.5938 45 28.5938C46.1875 28.5938 47.1667 28.5 47.9375 28.3125C49.3854 27.9583 50.1094 27.3073 50.1094 26.3594C50.1094 25.8073 49.901 25.3906 49.4844 25.1094C49.0781 24.8385 48.3333 24.7031 47.25 24.7031H42C41.6667 24.974 41.4271 25.2031 41.2812 25.3906C41.0208 25.7344 40.8906 26.099 40.8906 26.4844ZM38.0781 26.7031C38.0781 26.2448 38.2656 25.7708 38.6406 25.2812C39.026 24.8021 39.6875 24.4896 40.625 24.3438V24.125C40 23.8854 39.5469 23.6406 39.2656 23.3906C38.7656 22.9427 38.5156 22.3438 38.5156 21.5938C38.5156 20.6979 38.9062 19.9323 39.6875 19.2969C40.4792 18.6615 41.25 18.2188 42 17.9688V17.75C40.9167 17.3125 40.0417 16.6875 39.375 15.875C38.7083 15.0625 38.375 14.0781 38.375 12.9219C38.375 11.4635 38.9583 10.2604 40.125 9.3125C41.2917 8.36458 42.8698 7.89062 44.8594 7.89062C45.6094 7.89062 46.2969 7.96354 46.9219 8.10938C47.5469 8.25521 48.0312 8.40625 48.375 8.5625H52.5938V10.2656H50C50.4167 10.6719 50.7344 11.1458 50.9531 11.6875C51.1823 12.2292 51.2969 12.8177 51.2969 13.4531C51.2969 15.4531 50.3438 16.8229 48.4375 17.5625C47.4375 17.9583 46.1927 18.1562 44.7031 18.1562C44.3802 18.1562 44.1667 18.151 44.0625 18.1406C43.9688 18.1302 43.8229 18.125 43.625 18.125C43.3125 18.1771 42.9844 18.3438 42.6406 18.625C42.2865 18.9167 42.1094 19.2656 42.1094 19.6719C42.1094 19.9948 42.1979 20.2448 42.375 20.4219C42.5521 20.599 42.7969 20.7083 43.1094 20.75C43.2656 20.7708 43.599 20.7917 44.1094 20.8125C44.6198 20.8229 45.0156 20.8281 45.2969 20.8281L47.375 20.8594C48.5521 20.8802 49.5417 21.0521 50.3438 21.375C51.875 22 52.6406 23.1198 52.6406 24.7344C52.6406 26.8177 51.4948 28.25 49.2031 29.0312C47.9948 29.4375 46.474 29.6406 44.6406 29.6406C43.1406 29.6406 41.849 29.4948 40.7656 29.2031C38.974 28.7135 38.0781 27.8802 38.0781 26.7031ZM55.2656 3.375C55.2656 2.6875 55.5052 2.10417 55.9844 1.625C56.474 1.13542 57.0625 0.890625 57.75 0.890625C58.4271 0.890625 59.0052 1.13542 59.4844 1.625C59.974 2.10417 60.2188 2.6875 60.2188 3.375C60.2188 4.0625 59.974 4.65104 59.4844 5.14062C59.0052 5.61979 58.4271 5.85938 57.75 5.85938C57.0625 5.85938 56.474 5.61979 55.9844 5.14062C55.5052 4.65104 55.2656 4.0625 55.2656 3.375ZM53.8594 22.2344C54.4219 22.1406 54.8073 22 55.0156 21.8125C55.3281 21.5312 55.4844 21.026 55.4844 20.2969V10.8906C55.4844 10.2448 55.375 9.80729 55.1562 9.57812C54.9375 9.33854 54.5052 9.16146 53.8594 9.04688V8.26562H60V20.4219C60 21.1198 60.1042 21.5677 60.3125 21.7656C60.5208 21.9635 60.9115 22.1198 61.4844 22.2344V23H53.8594V22.2344ZM70.5 7.85938C71.8438 7.85938 73.0052 8.1875 73.9844 8.84375C74.974 9.5 75.4688 10.3438 75.4688 11.375C75.4688 11.9271 75.2708 12.4062 74.875 12.8125C74.4896 13.2188 73.9948 13.4219 73.3906 13.4219C72.9844 13.4219 72.6302 13.3281 72.3281 13.1406C71.7552 12.8073 71.4688 12.2031 71.4688 11.3281C71.4688 11.2344 71.474 11.099 71.4844 10.9219C71.4948 10.7344 71.5 10.5365 71.5 10.3281C71.5 9.76562 71.3698 9.38021 71.1094 9.17188C70.8385 8.96354 70.5312 8.85938 70.1875 8.85938C69.1979 8.85938 68.4948 9.40625 68.0781 10.5C67.6615 11.5833 67.4531 12.8281 67.4531 14.2344C67.4531 16.2344 67.849 17.9115 68.6406 19.2656C69.4323 20.6198 70.5 21.2969 71.8438 21.2969C72.6875 21.2969 73.4062 21.1094 74 20.7344C74.3542 20.5156 74.7917 20.1146 75.3125 19.5312L75.9062 20.0781C74.8646 21.526 73.6458 22.5208 72.25 23.0625C71.5104 23.3438 70.724 23.4844 69.8906 23.4844C67.8385 23.4844 66.1615 22.75 64.8594 21.2812C63.5573 19.8125 62.9062 18.0208 62.9062 15.9062C62.9062 13.6771 63.5938 11.7812 64.9688 10.2188C66.3542 8.64583 68.1979 7.85938 70.5 7.85938Z" fill="#E31B23"/>
</svg>
