<svg width="124" height="27" viewBox="0 0 124 27" fill="none" xmlns="http://www.w3.org/2000/svg">
<path d="M17.2871 20.4668C18.0869 20.46 18.6064 20.3198 18.8457 20.0464C19.085 19.7661 19.2046 19.3491 19.2046 18.7954V8.82861C19.2046 8.25439 19.0679 7.87842 18.7944 7.70068C18.521 7.51611 18.0356 7.39648 17.3384 7.3418V6.80859H22.6294L26.7617 16.5293H26.936L31.0479 6.80859H36.3389V7.3418C35.6279 7.39648 35.1426 7.52979 34.8828 7.7417C34.623 7.94678 34.4932 8.45605 34.4932 9.26953V18.5493C34.4932 19.3218 34.623 19.8276 34.8828 20.0669C35.1426 20.3062 35.6279 20.4395 36.3389 20.4668V21H29.3662V20.4668C29.9883 20.4463 30.4565 20.3438 30.771 20.1592C31.0854 19.9678 31.2427 19.5542 31.2427 18.9185V8.6543H31.0889L25.9414 21H25.3774L20.1787 8.90039H20.0864V18.4058C20.0864 19.103 20.2163 19.6123 20.4761 19.9336C20.7358 20.2549 21.3101 20.4326 22.1987 20.4668V21H17.2871V20.4668ZM41.4351 19.8003C41.7769 19.8003 42.0947 19.6978 42.3887 19.4927C42.5527 19.3696 42.7476 19.1782 42.9731 18.9185V15.8525C42.4126 15.9893 41.9204 16.2046 41.4966 16.4985C40.7788 16.9976 40.4199 17.6333 40.4199 18.4058C40.4199 18.8638 40.5225 19.2124 40.7275 19.4517C40.9395 19.6841 41.1753 19.8003 41.4351 19.8003ZM37.3643 19.0415C37.3643 18.0981 37.8188 17.3496 38.728 16.7959C39.6372 16.2422 41.0625 15.6851 43.0039 15.1245V13.5967C43.0039 12.9746 42.8706 12.5166 42.604 12.2227C42.3442 11.9219 41.8794 11.7715 41.2095 11.7715C40.8335 11.7715 40.5225 11.8433 40.2764 11.9868C40.0371 12.1235 39.9175 12.2979 39.9175 12.5098C39.9175 12.5918 39.9312 12.6602 39.9585 12.7148C39.9858 12.7695 40.0269 12.8276 40.0815 12.8892L40.2046 13.0327C40.3003 13.1489 40.3755 13.2788 40.4302 13.4224C40.4917 13.5591 40.5225 13.7061 40.5225 13.8633C40.5225 14.2598 40.3892 14.5674 40.1226 14.7861C39.8628 14.998 39.5586 15.104 39.21 15.104C38.8066 15.104 38.4614 14.9844 38.1743 14.7451C37.894 14.5059 37.7539 14.1606 37.7539 13.7095C37.7539 12.9028 38.1333 12.2637 38.8921 11.792C39.6509 11.3203 40.584 11.0845 41.6914 11.0845C42.8809 11.0845 43.8755 11.3135 44.6753 11.7715C45.4683 12.2363 45.8647 13.0908 45.8647 14.335V19.4209C45.8647 19.5713 45.9023 19.7012 45.9775 19.8105C46.0596 19.9131 46.1484 19.9644 46.2441 19.9644C46.3262 19.9644 46.3979 19.9507 46.4595 19.9233C46.5278 19.8892 46.6304 19.8037 46.7671 19.667L47.085 20.1079C46.6748 20.5864 46.2202 20.9214 45.7212 21.1128C45.4067 21.2358 45.0752 21.2974 44.7266 21.2974C44.1045 21.2974 43.6499 21.1162 43.3628 20.7539C43.1987 20.5488 43.0791 20.2446 43.0039 19.8413C42.4229 20.4224 41.7666 20.8325 41.0352 21.0718C40.5908 21.2222 40.1533 21.2974 39.7227 21.2974C39.1484 21.2974 38.6118 21.1162 38.1128 20.7539C37.6138 20.3848 37.3643 19.814 37.3643 19.0415ZM47.7104 20.4976C48.1138 20.4497 48.394 20.354 48.5513 20.2104C48.7085 20.0669 48.7939 19.79 48.8076 19.3799L48.8281 18.7646V13.0532C48.8281 12.6157 48.7529 12.3184 48.6025 12.1611C48.4521 12.0039 48.1548 11.8979 47.7104 11.8433V11.3306H51.6992V12.9814C52.1436 12.4004 52.5845 11.939 53.022 11.5972C53.4595 11.2554 53.9653 11.0845 54.5396 11.0845C54.9702 11.0845 55.3564 11.2246 55.6982 11.5049C56.0469 11.7783 56.2212 12.1816 56.2212 12.7148C56.2212 13.125 56.0981 13.4634 55.8521 13.73C55.6128 13.9966 55.2983 14.1299 54.9087 14.1299C54.4644 14.1299 54.0781 13.9214 53.75 13.5044C53.4287 13.0874 53.2031 12.8789 53.0732 12.8789C52.793 12.8789 52.5093 13.0532 52.2222 13.4019C51.9419 13.7437 51.8018 14.2358 51.8018 14.8784V18.8467C51.8018 19.5439 51.9009 19.9814 52.0991 20.1592C52.3042 20.3301 52.7075 20.4429 53.3091 20.4976V21H47.7104V20.4976ZM57.0005 20.4976C57.3696 20.4087 57.6294 20.2925 57.7798 20.1489C57.937 19.9985 58.0156 19.6909 58.0156 19.2261V8.53125C58.0156 8.08691 57.9438 7.79639 57.8003 7.65967C57.6567 7.52295 57.3901 7.41016 57.0005 7.32129V6.80859H60.938V15.8525L63.604 13.1763C63.7612 13.019 63.874 12.8721 63.9424 12.7354C64.0107 12.5918 64.0449 12.479 64.0449 12.397C64.0449 12.1851 63.9492 12.0449 63.7578 11.9766C63.5732 11.9082 63.2554 11.8535 62.8042 11.8125V11.3306H67.3057V11.8125C66.875 11.8672 66.5332 11.9424 66.2803 12.0381C65.8291 12.2158 65.3916 12.5166 64.9678 12.9404L63.3374 14.5913L67.3979 20.1797C67.48 20.2959 67.5586 20.3745 67.6338 20.4155C67.709 20.4497 67.8081 20.4771 67.9312 20.4976V21H63.0298V20.4976C63.3306 20.4839 63.5493 20.4463 63.686 20.3848C63.8296 20.3232 63.9014 20.2275 63.9014 20.0977C63.9014 20.0293 63.8706 19.937 63.8091 19.8208C63.7544 19.6978 63.6143 19.4756 63.3887 19.1543L61.3994 16.3345L60.938 16.8472V19.2261C60.938 19.6978 60.9961 20.0122 61.1123 20.1694C61.2285 20.3267 61.5259 20.436 62.0044 20.4976V21H57.0005V20.4976ZM68.731 20.4668C69.3052 20.4463 69.7153 20.3711 69.9614 20.2412C70.3784 20.0225 70.5869 19.6055 70.5869 18.9902V8.82861C70.5869 8.21338 70.3887 7.7998 69.9922 7.58789C69.7598 7.45801 69.3394 7.37598 68.731 7.3418V6.80859H76.0728V7.3418C75.2183 7.36914 74.6475 7.48877 74.3604 7.70068C74.0801 7.9126 73.9399 8.43555 73.9399 9.26953V19.1851C73.9399 19.6499 74.0596 19.9575 74.2988 20.1079C74.5449 20.2583 75.02 20.3335 75.7241 20.3335C76.9888 20.3335 78.0483 20.0566 78.9028 19.5029C79.7642 18.9424 80.5059 17.8555 81.1279 16.2422H81.7432L80.8921 21H68.731V20.4668ZM82.8198 16.1909C82.8198 14.728 83.2676 13.5078 84.1631 12.5303C85.0654 11.5527 86.1968 11.064 87.5571 11.064C88.9448 11.064 90.0796 11.563 90.9614 12.561C91.8501 13.5591 92.2944 14.769 92.2944 16.1909C92.2944 17.5923 91.8569 18.7988 90.9819 19.8105C90.1069 20.8154 88.9653 21.3179 87.5571 21.3179C86.1899 21.3179 85.0586 20.8291 84.1631 19.8516C83.2676 18.8672 82.8198 17.647 82.8198 16.1909ZM85.9062 16.1909C85.9062 17.6606 85.9814 18.6895 86.1318 19.2773C86.3711 20.1865 86.8462 20.6411 87.5571 20.6411C88.2339 20.6411 88.6782 20.2925 88.8901 19.5952C89.1021 18.8979 89.208 17.7632 89.208 16.1909C89.208 14.6255 89.0952 13.4941 88.8696 12.7969C88.6509 12.0928 88.2168 11.7407 87.5674 11.7407C86.8564 11.7407 86.3813 12.1953 86.1421 13.1045C85.9849 13.7129 85.9062 14.7417 85.9062 16.1909ZM96.4062 14.4683C96.4062 15.2749 96.4746 15.873 96.6113 16.2627C96.8164 16.8779 97.2095 17.1855 97.7905 17.1855C98.3169 17.1855 98.6792 16.9565 98.8774 16.4985C99.0757 16.0337 99.1748 15.3569 99.1748 14.4683C99.1748 13.5249 99.0688 12.8379 98.8569 12.4072C98.6519 11.9766 98.2964 11.7612 97.7905 11.7612C97.2368 11.7612 96.8677 11.9937 96.6831 12.4585C96.4985 12.9165 96.4062 13.5864 96.4062 14.4683ZM95.186 23.2866C95.186 23.7173 95.415 24.0557 95.873 24.3018C96.3379 24.5479 97.0078 24.6709 97.8828 24.6709C98.6621 24.6709 99.3047 24.6094 99.8105 24.4863C100.761 24.2539 101.236 23.8267 101.236 23.2046C101.236 22.8423 101.099 22.5688 100.826 22.3843C100.559 22.2065 100.07 22.1177 99.3594 22.1177H95.9141C95.6953 22.2954 95.5381 22.4458 95.4424 22.5688C95.2715 22.7944 95.186 23.0337 95.186 23.2866ZM93.3403 23.4302C93.3403 23.1294 93.4634 22.8184 93.7095 22.4971C93.9624 22.1826 94.3965 21.9775 95.0117 21.8818V21.7383C94.6016 21.5811 94.3042 21.4204 94.1196 21.2563C93.7915 20.9624 93.6274 20.5693 93.6274 20.0771C93.6274 19.4893 93.8838 18.9868 94.3965 18.5698C94.916 18.1528 95.4219 17.8623 95.9141 17.6982V17.5547C95.2031 17.2676 94.6289 16.8574 94.1914 16.3242C93.7539 15.791 93.5352 15.145 93.5352 14.3862C93.5352 13.4292 93.918 12.6396 94.6836 12.0176C95.4492 11.3955 96.4849 11.0845 97.7905 11.0845C98.2827 11.0845 98.7339 11.1323 99.144 11.228C99.5542 11.3237 99.8721 11.4229 100.098 11.5254H102.866V12.6431H101.164C101.438 12.9097 101.646 13.2207 101.79 13.5762C101.94 13.9316 102.015 14.3179 102.015 14.7349C102.015 16.0474 101.39 16.9463 100.139 17.4316C99.4824 17.6914 98.6655 17.8213 97.688 17.8213C97.4761 17.8213 97.3359 17.8179 97.2676 17.811C97.2061 17.8042 97.1104 17.8008 96.9805 17.8008C96.7754 17.835 96.5601 17.9443 96.3345 18.1289C96.1021 18.3203 95.9858 18.5493 95.9858 18.8159C95.9858 19.0278 96.0439 19.1919 96.1602 19.3081C96.2764 19.4243 96.437 19.4961 96.6421 19.5234C96.7446 19.5371 96.9634 19.5508 97.2983 19.5645C97.6333 19.5713 97.8931 19.5747 98.0776 19.5747L99.4414 19.5952C100.214 19.6089 100.863 19.7217 101.39 19.9336C102.395 20.3438 102.897 21.0786 102.897 22.1382C102.897 23.5054 102.145 24.4453 100.641 24.958C99.8481 25.2246 98.8501 25.3579 97.647 25.3579C96.6626 25.3579 95.8149 25.2622 95.104 25.0708C93.9282 24.7495 93.3403 24.2026 93.3403 23.4302ZM104.62 8.12109C104.62 7.66992 104.777 7.28711 105.091 6.97266C105.413 6.65137 105.799 6.49072 106.25 6.49072C106.694 6.49072 107.074 6.65137 107.388 6.97266C107.709 7.28711 107.87 7.66992 107.87 8.12109C107.87 8.57227 107.709 8.9585 107.388 9.27979C107.074 9.59424 106.694 9.75146 106.25 9.75146C105.799 9.75146 105.413 9.59424 105.091 9.27979C104.777 8.9585 104.62 8.57227 104.62 8.12109ZM103.697 20.4976C104.066 20.436 104.319 20.3438 104.456 20.2207C104.661 20.0361 104.763 19.7046 104.763 19.2261V13.0532C104.763 12.6294 104.691 12.3423 104.548 12.1919C104.404 12.0347 104.121 11.9185 103.697 11.8433V11.3306H107.727V19.3081C107.727 19.7661 107.795 20.0601 107.932 20.1899C108.068 20.3198 108.325 20.4224 108.701 20.4976V21H103.697V20.4976ZM114.617 11.064C115.499 11.064 116.261 11.2793 116.904 11.71C117.553 12.1406 117.878 12.6943 117.878 13.3711C117.878 13.7334 117.748 14.0479 117.488 14.3145C117.235 14.5811 116.911 14.7144 116.514 14.7144C116.248 14.7144 116.015 14.6528 115.817 14.5298C115.441 14.311 115.253 13.9146 115.253 13.3403C115.253 13.2788 115.256 13.1899 115.263 13.0737C115.27 12.9507 115.273 12.8208 115.273 12.6841C115.273 12.3149 115.188 12.062 115.017 11.9253C114.839 11.7886 114.638 11.7202 114.412 11.7202C113.763 11.7202 113.301 12.0791 113.028 12.7969C112.754 13.5078 112.618 14.3247 112.618 15.2476C112.618 16.5601 112.877 17.6606 113.397 18.5493C113.917 19.438 114.617 19.8823 115.499 19.8823C116.053 19.8823 116.524 19.7593 116.914 19.5132C117.146 19.3696 117.434 19.1064 117.775 18.7236L118.165 19.0825C117.481 20.0327 116.682 20.6855 115.766 21.041C115.28 21.2256 114.764 21.3179 114.217 21.3179C112.871 21.3179 111.77 20.8359 110.916 19.8721C110.061 18.9082 109.634 17.7324 109.634 16.3447C109.634 14.8818 110.085 13.6377 110.987 12.6123C111.896 11.5801 113.106 11.064 114.617 11.064Z" fill="white"/>
<rect y="7" width="10" height="10" rx="1" fill="white"/>
<rect y="7" width="10" height="10" rx="1" fill="white"/>
<rect x="10" width="6" height="6" rx="1" fill="white"/>
<rect x="10" width="6" height="6" rx="1" fill="white"/>
</svg>
