<?xml version="1.0" encoding="UTF-8" standalone="no"?>
<svg xmlns:rdf="http://www.w3.org/1999/02/22-rdf-syntax-ns#" xmlns="http://www.w3.org/2000/svg" xml:space="preserve" height="116.67" viewBox="0 0 229.65587 116.667" width="229.66" version="1.1" xmlns:cc="http://creativecommons.org/ns#" xmlns:dc="http://purl.org/dc/elements/1.1/"><g transform="matrix(1.25 0 0 -1.25 -277.18 745.47)"><g style="" transform="matrix(.5 0 0 .5 157.05 275.32)"><g fill="#b38f4f"><path d="m211.71 582.93s6.56-6.889 7.685-8.071v-51.561c-0.811-1.306-7.68-12.355-7.68-12.355l39.214 5.974 0.111 23.032s-10.583-6.147-11.526-6.695c-0.278-0.047-0.834-0.137-1.521-0.253 0.001 7.128 0.003 54.271 0.003 54.271l-26.286-4.342z"/><path d="m423.3 570.15v-51.627c-1.008-1.233-6.879-8.408-6.879-8.408l5.467-1.339 32.578-7.957 0.161 23.332s-9.091-2.487-10.513-2.877c-0.637 0.182-1.185 0.337-2.334 0.665 0 4.84 0.006 54.413 0.006 54.413l-27.044 6.252s7.667-11.159 8.558-12.454"/><path d="m449.99 563.06c0.353-1.002 11.722-33.229 12.105-34.321v-20.34c-1.154-1.242-7.204-7.734-7.204-7.734l25.136-7.849v32.353c0.511 1.192 14.904 34.747 14.904 34.747l-18.164 6.356s-3.219-9.764-5.301-16.069c-2.172 8.322-5.03 19.269-5.03 19.269l-27.23 7.752s10.202-13.401 10.784-14.164"/><path d="m154.07 568.23c-0.003-0.001-10.149-3.292-10.149-3.292-4.102-1.376-9.699-3.254-12.091-11.321-1.148-3.659-1.148-7.657-1.148-11.186v-35.988c0-4.491 0-10.087 4.318-12.979 3.948-2.54 8.934-0.884 12.234 0.211l9.462 3.053c0.005 0 0.178 0.056 0.178 0.056 4.454 1.391 11.184 3.501 13.192 13.025 0.703 3.388 0.703 7.219 0.703 10.923v9.689l-18.337-5.43v-12.22c-0.899-0.29-2.209-0.713-3.463-1.119v37.532c0.901 0.274 2.215 0.674 3.463 1.055v-9.665l18.337 5.477v5.984c0 5.499 0 9.842-1.831 13.185-3.595 6.534-10.652 4.328-14.868 3.01"/><path d="m193.56 550.25c0.747-5.004 1.196-8.019 1.501-10.049-1.22-0.284-1.516-0.353-3-0.696 0.42 3.009 0.751 5.384 1.499 10.745m-21.396 23.505s6.085-6.024 7.27-7.194c-0.495-3.3-7.87-52.61-8.05-53.807-0.521-0.942-7.508-13.574-7.508-13.574l23.442 6.216s1.898 13.673 2.395 17.252c2.17 0.502 4.666 1.081 7.706 1.786 0.665-4.454 2.405-16.111 2.405-16.111l17.863 3.655-11.819 69.741-33.704-7.964z"/><path d="m355.93 573.48c1.967-0.163 2.881-0.237 4.125-0.341v-15.621c-1.523 0.124-2.292 0.189-4.125 0.341v15.621zm-18.693 8.238v-51.375c-1.019-1.324-7.725-10.049-7.725-10.049l26.439-1.623s-0.017 17.524-0.022 22.881c3.24-0.284 7.132-0.624 7.132-0.624 0.004-0.001 0.168-0.017 0.168-0.017 3.976-0.384 10.625-1.032 13.758 5.496 1.572 3.293 1.572 7.476 1.572 10.837v15.586c0 3.583 0 9.581-4.803 13.573l-0.071 0.056-0.073 0.055c-3.937 2.943-10.312 3.453-11.026 3.501l-33.958 2.42s7.563-9.413 8.609-10.717"/><path d="m397.96 568.24c1.264-0.214 2.688-0.456 3.75-0.636v-37.747c-1.266 0.214-2.689 0.457-3.75 0.637v37.746zm-17.432 11.366c-1.251-3.252-1.251-7.133-1.251-10.886v-35.992c0-4.248 0-9.536 3.74-13.758 3.429-3.776 8.524-4.597 11.568-5.086l9.7-1.646c0.005 0 0.176-0.031 0.176-0.031 4.119-0.734 12.688-2.263 15.067 7.712 0.728 3.129 0.728 6.982 0.728 10.708v31.298c0 5.193 0 9.677-1.709 13.594l-0.003 0.006c-2.758 6.282-7.978 7.692-13.538 8.683l-10.444 1.754c-3.873 0.613-11.092 1.76-14.034-6.356"/></g><g fill="#fff"><path d="m215.76 581.57s4.95-5.199 5.635-5.917v-52.93c-0.417-0.67-5.695-9.16-5.695-9.16l33.246 5.064 0.085 17.84s-8.37-4.861-8.826-5.128c-0.358-0.057-2.483-0.41-4.203-0.696 0 3.418 0.003 54.271 0.003 54.271l-20.245-3.344z"/><path d="m154.66 566.32c-0.002 0-10.12-3.281-10.12-3.281-3.882-1.304-8.705-2.923-10.803-9.996-1.066-3.397-1.066-7.068-1.066-10.618v-35.988c0-4.019 0-9.02 3.433-11.323 3.114-2.001 7.557-0.527 10.496 0.448l9.496 3.062c0.002 0.003 0.176 0.055 0.176 0.055 4.486 1.407 10.069 3.156 11.836 11.537 0.659 3.179 0.659 6.907 0.659 10.511v7.018l-14.346-4.251v-11.896c-0.008-0.104-0.186-0.346-0.345-0.396-0.019-0.007-5.357-1.73-7.109-2.298v41.462c0.009 0.104 0.185 0.346 0.342 0.394 0 0 5.392 1.641 7.112 2.165v-9.678l14.346 4.285v4.497c0 5.215 0 9.333-1.584 12.226-2.808 5.103-8.424 3.347-12.523 2.065"/><path d="m193.53 563.98c0.417-2.791 3.423-22.907 3.781-25.308-1.662-0.385-5.219-1.212-7.623-1.768 0.516 3.694 3.519 25.245 3.772 27.061 0.034 0.008 0.039 0.009 0.07 0.015m-17.399 8.66s4.601-4.556 5.428-5.376c-0.225-1.506-8.169-54.621-8.249-55.16-0.253-0.457-5.421-9.797-5.421-9.797l17.639 4.676s2.142 15.432 2.402 17.297c1.526 0.354 8.827 2.048 11.147 2.584 0.4-2.678 2.414-16.166 2.414-16.166l13.909 2.847-11.139 65.741-28.13-6.646z"/><path d="m425.29 570.77v-52.96c-0.555-0.68-5.328-6.511-5.328-6.511l32.52-7.944 0.124 18.176s-7.771-2.127-8.51-2.329c-0.57 0.162-2.978 0.849-4.317 1.232 0 2.242 0.006 54.329 0.006 54.329l-20.498 4.739s5.527-8.044 6.003-8.732"/><path d="m451.77 564.02c0.16-0.45 12.151-34.447 12.325-34.939v-21.469c-0.678-0.73-5.579-5.986-5.579-5.986l19.519-6.093v30.048c1.01 2.375 9.165 21.379 13.567 31.63l0.658 1.53-14.23 4.979-6.782-20.559c-1.806 6.909-6.451 24.704-6.451 24.704l-20.367 5.798s7.063-9.28 7.34-9.643"/><path d="m353.94 575.65c2.306-0.193 8.098-0.675 8.098-0.675s0.02-19.141 0.02-19.626c-0.381 0.03-6.097 0.505-8.118 0.672v19.629zm-14.7 6.769v-52.753c-0.552-0.72-5.852-7.612-5.852-7.612l20.573-1.261s-0.021 20.026-0.022 22.935c2.403-0.209 9.323-0.814 9.323-0.814 0.003-0.002 0.169-0.018 0.169-0.018 3.896-0.378 9.234-0.896 11.764 4.374 1.375 2.88 1.375 6.813 1.375 9.973v15.586c0 3.442 0 8.645-4.082 12.036l-0.063 0.052c-3.541 2.642-9.706 3.089-9.967 3.105l-29.404 2.095s5.606-6.976 6.186-7.698"/><path d="m396.12 528.79c-0.057 0.013-0.141 0.105-0.148 0.158v41.657c1.572-0.265 7.598-1.284 7.598-1.284 0.049-0.013 0.135-0.11 0.142-0.163v-41.66c-1.576 0.27-7.592 1.292-7.592 1.292m-13.709 50.142c-1.131-2.942-1.131-6.635-1.131-10.206v-35.993c0-3.911 0-8.78 3.237-12.435 2.944-3.241 7.425-3.962 10.392-4.44l9.735-1.649c0.003 0 0.176-0.032 0.176-0.032 4.312-0.771 10.834-1.934 12.775 6.211 0.675 2.894 0.675 6.631 0.675 10.245v31.298c0 5.173 0 9.259-1.546 12.794v0.004c-2.368 5.386-6.862 6.593-12.06 7.519l-10.406 1.746c-3.993 0.636-9.466 1.504-11.847-5.062"/></g><g fill="#003831"><path d="m234.45 583.09-0.002-54.272 6.288 1.041 6.729 3.908-0.067-13.8-28.605-4.359 4.151 6.676v53.993l-4.04 4.244 15.546 2.569z"/><path d="m438.23 573.53-0.006-54.267 5.861-1.672 6.954 1.902-0.097-14.163-28.222 6.89s4.127 5.038 4.119 5.038v53.993l-4.013 5.84 15.404-3.561z"/><path d="m479 561.73 11.168-3.905s-13.682-31.875-13.693-31.931v-28.254l-15.151 4.732 4.315 4.629v22.344l-12.496 35.419-4.664 6.127 15.03-4.277 7.556-28.934 7.935 24.05z"/><path d="m155.98 522.34v-10.739c0-0.792-0.645-1.633-1.444-1.879l-7.676-2.482c-0.794-0.246-1.438 0.205-1.438 0.996v42.134c0 0.791 0.644 1.633 1.438 1.876l7.676 2.338c0.799 0.24 1.444-0.205 1.444-0.999v-8.253l11.241 3.361v3.339c0 4.99 0 8.936-1.394 11.482-2.006 3.646-5.707 2.889-10.699 1.33-3.373-1.059-10.096-3.275-10.096-3.275-3.917-1.316-7.955-2.737-9.801-8.964-1.002-3.193-1.002-6.744-1.002-10.176v-35.988c0-3.847 0-8.195 2.745-10.035 2.512-1.614 6.589-0.213 9.296 0.683 3.12 1.037 6.241 2.045 9.369 3.021 4.378 1.374 9.355 2.835 10.955 10.429 0.627 3.021 0.627 6.665 0.627 10.191v4.938l-11.241-3.328z"/><path d="m187.83 534.88s2.821 20.24 4.233 30.353c0.912 0.217 1.829 0.428 2.743 0.639 1.414-9.457 4.243-28.389 4.243-28.389l-11.219-2.603zm15.168 42.514-23.795-5.622 4-3.959-8.409-56.217-3.794-6.858 13.124 3.48 2.405 17.332c4.599 1.128 13.826 3.205 13.826 3.205l2.419-16.209 10.837 2.217-10.613 62.631z"/><path d="m363.61 555.1c0-0.795-0.646-1.383-1.443-1.318l-9.778 0.811v22.74l9.778-0.814c0.797-0.06 1.443-0.757 1.443-1.556v-19.863zm7.885 28.572c-3.212 2.401-9.14 2.802-9.14 2.802l-25.864 1.841 4.301-5.351v-53.828l-4.391-5.712 16.007-0.981-0.023 22.977c3.678-0.281 7.356-0.603 11.03-0.964 3.889-0.377 8.291-0.87 10.382 3.484 1.223 2.56 1.223 6.302 1.223 9.302v15.586c0 3.334 0 7.916-3.525 10.844"/><path d="m405.26 527.1c0-0.797-0.647-1.332-1.436-1.194l-7.97 1.357c-0.797 0.131-1.438 0.884-1.438 1.681v42.066c0 0.794 0.641 1.33 1.438 1.193l7.97-1.35c0.789-0.133 1.436-0.892 1.436-1.686v-42.067zm10.037 47.007c-2.035 4.636-5.801 5.705-10.91 6.617-3.454 0.618-6.908 1.195-10.376 1.74-4.04 0.641-8.225 1.236-10.147-4.059-1.037-2.697-1.038-6.246-1.038-9.677v-35.993c0-3.846 0.001-8.193 2.849-11.405 2.607-2.874 6.829-3.51 9.615-3.961 3.213-0.517 6.421-1.056 9.624-1.632 4.48-0.798 9.542-1.794 11.165 5.013 0.633 2.713 0.633 6.36 0.633 9.885v31.298c0 4.993 0 8.935-1.415 12.174"/></g><path d="m244.4 522.56c-1.58-0.24-15.058-2.294-21.787-3.319-0.389-0.624-0.796-1.281-1.169-1.878 4.424 0.672 22.765 3.466 24.625 3.75 0.007 1.564 0.036 7.444 0.051 10.342-0.517-0.302-1.101-0.641-1.682-0.979-0.014-2.982-0.032-6.718-0.038-7.916m-44.035 52.852c1.667-9.835 9.496-56.047 9.866-58.222-1.382-0.284-4.515-0.932-6.602-1.361 0.112-0.748 0.2-1.339 0.253-1.692 1.818 0.372 6.518 1.335 8.202 1.679-0.403 2.379-9.718 57.346-10.162 59.965-0.304-0.074-0.848-0.202-1.557-0.369m-0.347-43.58-16.128-3.741s-2.191-15.779-2.41-17.36c-0.848-0.225-3.811-1.012-6.621-1.756-0.376-0.68-0.793-1.436-1.187-2.147 3.275 0.87 8.128 2.156 9.255 2.455 0.218 1.579 2.41 17.362 2.41 17.362l14.931 3.463c-0.031 0.192-0.046 0.298-0.046 0.298l-0.204 1.426zm-37.305 32.76c0.129-0.173 0.253-0.354 0.367-0.562 1.231-2.247 1.231-6.04 1.231-10.84v-2.353c-1.068-0.319-4.539-1.355-7.008-2.091v-1.625c2.215 0.662 7.253 2.167 8.582 2.565v2.35c0 4.801 0 8.595-1.231 10.841-0.492 0.895-1.122 1.44-1.941 1.715m324.23-7.043c-12.771-29.739-13.348-30.461-13.348-30.461s0.217-22.311 0.217-25.481c-1.726 0.539-5.784 1.805-8.82 2.754-0.432-0.463-0.872-0.935-1.253-1.345 2.634-0.823 9.101-2.842 11.403-3.562v26.604l0.038 0.151c0.038 0.157 0.067 0.23 13.204 30.833-0.368 0.129-0.867 0.305-1.441 0.507m-116.3 25.099c-0.253 0.187-0.533 0.36-0.824 0.521 2.012-2.276 2.516-6.747 2.516-9.298l-0.221-15.586c0-2.869 0.06-6.348-0.794-8.732-0.911-2.54-2.254-2.466-7.677-2.097-5.422 0.37-14.06 1.275-14.06 1.275s-0.154-20.587-0.152-23.08c-1.512 0.092-5.843 0.372-9.196 0.583-0.425-0.554-0.866-1.128-1.257-1.636 3.187-0.195 10.147-0.623 12.094-0.743-0.002 2.495-0.024 23.017-0.024 23.017l12.492-1.093c0 0.002 0.163-0.016 0.163-0.016 4.367-0.423 7.348-0.46 8.89 2.754 1.093 2.285 1.093 5.856 1.093 8.725v15.586c0 3.249 0 7.293-3.043 9.82m41.479-6.215c0.149-0.271 0.293-0.553 0.426-0.857 1.304-2.986 1.304-6.806 1.304-11.643v-31.298c0-3.451 0.099-7.642-0.475-10.204-1.09-4.863-2.765-4.56-7.819-3.659 0 0-1.941 0.275-1.94 0.275l-9.788 1.661c-2.566 0.412-6.008 0.988-8.275 3.118 0.304-0.567 0.667-1.109 1.118-1.615 2.238-2.468 5.968-3.067 8.69-3.505l9.788-1.66c-0.002 0 0.174-0.03 0.174-0.03 5.054-0.903 8.215-1.188 9.464 4.041 0.595 2.558 0.595 6.126 0.595 9.577v31.298c0 4.837 0 8.657-1.304 11.643-0.524 1.195-1.163 2.121-1.958 2.858m36.108-67.344c-2.256 0.554-15.792 3.859-21.968 5.369-0.337-0.42-0.713-0.883-1.169-1.441 3.308-0.808 21.858-5.34 24.536-5.993 0.015 2.247 0.056 8.398 0.073 10.728-0.41-0.114-0.896-0.247-1.412-0.386-0.017-2.649-0.047-6.475-0.06-8.277m21.81 27.267c-2.109 8.086-7.33 28.078-7.62 29.194-0.261 0.072-0.857 0.242-1.655 0.47 1.38-5.292 8.423-32.272 8.423-32.272s0.328 1 0.852 2.608m-76.752-8.461c-0.129 0.331-0.2 0.686-0.2 1.049v42.066c0 0.769 0.323 1.482 0.889 1.958 0.568 0.481 1.336 0.678 2.106 0.545l7.965-1.35c0.285-0.047 0.555-0.15 0.81-0.277-0.384 0.984-1.278 1.765-2.343 1.946l-6.88 1.131c-2.216 0.279-4.1-1.409-4.1-4.013l0.02-40.339c0-1.152 0.72-2.212 1.733-2.716m43.618 44.581c-0.311 0.072-0.866 0.199-1.565 0.36 0-3.093 0-7.604-0.006-52.703l1.565-0.472c0 8.301 0.006 50.98 0.006 52.815m-272.59-50.59c0-3.458 0-7.034-0.599-9.917-1.418-6.729-4.204-7.573-9.874-9.378 0 0-0.177-0.055-0.176-0.055l-9.391-3.03-0.157-0.05c-2.131-0.708-5.223-1.731-7.233-1.125 0.235-0.319 0.505-0.6 0.827-0.817 1.908-1.225 5.562-0.012 7.981 0.788l0.156 0.053 9.391 3.029c-0.002-0.003 0.175 0.053 0.175 0.053 4.35 1.365 8.456 2.651 9.875 9.379 0.599 2.882 0.599 6.459 0.599 9.917v3.159c-0.433-0.128-0.975-0.29-1.574-0.468v-1.538zm186.74 56.895 11.216-0.935c0.424-0.032 0.818-0.167 1.171-0.366-0.399 1.087-1.339 1.995-2.463 2.08l-11.559 0.935-0.029-25.706 1.664-0.133v24.125zm-207.6-71.329c0.275-0.205 0.594-0.331 0.932-0.396-0.189 0.352-0.298 0.753-0.298 1.184v42.133c0 1.378 1.023 2.732 2.376 3.148 0.005 0.001 7.683 2.339 7.683 2.339 0.439 0.132 0.876 0.145 1.285 0.066-0.156 0.293-0.365 0.551-0.633 0.752-0.612 0.454-1.422 0.577-2.227 0.335 0 0-7.677-2.338-7.681-2.339-1.355-0.416-2.377-2.518-2.377-3.895v-41.385c0-0.794 0.343-1.503 0.94-1.942m47.418 58.878 3.84 0.893-0.248 1.726-5.04-1.172-4.74-33.645 1.757 0.409 4.431 31.789zm42.247 15.196c-0.408-0.068-0.986-0.164-1.67-0.277 0-9.52-0.002-52.548-0.002-52.548l1.669 0.275c0 8.96 0.003 49.916 0.003 52.55"/><path d="m398.11 474.19c0.029 0 3.933-0.003 5.676-0.006-0.01 0.006-1.39 0.841-2.116 1.277-0.677 0-1.878 0.003-3.556 0.003-0.001-0.383-0.003-0.767-0.004-1.274m-3.932 10.462 13.509-0.015s-0.012-9.272-0.014-10.456h0.114l0.14-14.285 0.043-2.689-13.323 0.017h0.003-0.026c-1.474 0.032-5.956 0.126-7.18 4.837-0.238 0.864-0.417 3.029-0.502 4.242l-0.006 0.056 0.038 8.581 0.003-0.108c-0.058 1.095-0.143 4.831 1.171 6.911 1.706 2.713 4.46 2.839 5.94 2.909h0.09zm-18.807 0h-8.957s0.003-4.617 0.003-5.728c-1.152 1.978-3.333 5.722-3.333 5.722l-12.414-0.006s2.411-5.332 2.724-6.023c0-1.031-0.017-14.376-0.019-15.434-0.322-0.688-2.793-5.982-2.793-5.982l13.126 0.011s0.007 4.773 0.01 6.009c1.122-2.059 3.27-6.006 3.27-6.006l9.86-0.003s0.009 20.47 0.01 21.504c0.287 0.668 2.555 5.936 2.555 5.936h-4.042zm-36.899 0.032s3.823-20.185 3.965-20.941c0.292-0.551 3.441-6.501 3.441-6.501l-13.504-0.018s-0.633 4.011-0.888 5.634h-0.328c-0.217-1.606-0.755-5.628-0.755-5.628h-14.025s3.471 5.64 3.835 6.231c0.172 0.926 3.944 21.208 3.944 21.208l12.107 0.015h2.208zm-50.443-0.012 25.491-0.026v-15.173s-5.954 4.617-7.16 5.552c0.002-3.744 0.01-10.852 0.012-11.695 0.319-0.703 2.796-6.15 2.796-6.15l-16.851 0.085s2.598 5.203 2.946 5.898v11.912c-1.191-0.932-7.234-5.66-7.234-5.66v12.594 2.663zm149.94-0.011v-12.563s-0.07 0.035-0.073 0.035c0.179-0.366 0.349-0.741 0.469-1.192 0.315-1.14 0.331-2.147 0.35-3.636 0 0-0.037-3.448-0.037-3.46-0.025-1.573-0.624-3.278-1.529-4.344-1.912-2.25-4.813-2.259-6.546-2.265 0 0 0.145 0.035 0.221 0.05-0.946-0.076-3.296-0.071-10.667-0.044l-2.657 0.011 0.023 12.894s0.422-0.24 0.555-0.313c-0.221 0.418-0.416 0.887-0.561 1.429l-0.052 0.205s-0.226 1.858-0.235 1.934l-0.023 4.069 0.006 0.071c0.057 1.215 0.137 2.877 1.23 4.365 1.869 2.625 4.814 2.686 6.574 2.727l0.197-0.006 10.081 0.027 2.674 0.006zm-158.3-0.006v-12.557s-0.069 0.035-0.072 0.035c0.179-0.366 0.349-0.741 0.467-1.192 0.318-1.14 0.332-2.147 0.352-3.636 0 0-0.038-3.448-0.038-3.46-0.025-1.573-0.624-3.278-1.529-4.344-1.911-2.25-4.812-2.259-6.546-2.265 0 0 0.146 0.035 0.222 0.05-0.945-0.076-3.297-0.071-10.67-0.044l-2.655 0.011 0.024 12.894s0.422-0.24 0.555-0.313c-0.221 0.418-0.416 0.887-0.561 1.429l-0.051 0.205s-0.228 1.858-0.236 1.934l-0.024 4.069 0.005 0.071c0.059 1.215 0.14 2.877 1.232 4.365 1.881 2.642 4.831 2.707 6.593 2.745l0.162-0.003 10.102 0.006h2.668zm-55.289 0.029 13.978-0.029v-0.003c0.786 0.003 12.938 0.023 12.938 0.023s-2.521-5.297-2.853-5.994c0-1.101-0.001-13.822-0.001-13.822-0.015-1.16-0.036-2.602-0.755-3.976-1.799-3.632-5.803-3.63-7.12-3.627 0 0 0.066 0.041 0.071 0.044-0.581-0.047-1.3-0.052-2.272-0.055-1.362-0.006-1.963-0.006-2.302 0.006 0.012-0.003 0.062-0.009 0.062-0.009-2.56-0.003-7.326-0.009-8.498 4.456l-0.024 0.085-0.016 0.088c-0.023 0.117-0.221 1.198-0.221 2.806 0 0 0.012 12.774 0.014 13.913-0.353 0.715-1.107 2.247-1.107 2.247l-1.894 3.847zm-42.017 0.006 14.546-0.023s2.624-4.908 4.332-8.101c1.761 3.196 4.458 8.095 4.458 8.095l14.73 0.014s-4.582-5.458-5.212-6.208c-0.002-1.649-0.02-14.045-0.021-15.088 0.335-0.714 2.896-6.155 2.896-6.155l-13.451 0.035s-0.011 4.89-0.014 6.326c-0.318-0.569-3.362-6.03-3.362-6.03s-3.14 5.438-3.489 6.041c-0.001-1.459-0.002-6.354-0.002-6.354h-13.223s2.489 5.118 2.817 5.792c-0.003 1.075-0.012 13.643-0.012 15.202-0.626 0.808-1.669 2.156-1.669 2.156l-3.324 4.298z" fill="#b38f4f"/><path d="m396.55 472.46c0.16-0.275 2.093-3.624 2.339-4.049v-3.551h-2.362c0.004 1.084 0.013 3.973 0.023 7.6m-7.091 8.452c-1.122-1.775-0.955-5.575-0.933-6.003-0.003 0.044-0.022-4.169-0.022-4.169l-0.018-4.268c0.04-0.58 0.229-3.2 0.451-4.002 0.933-3.595 4.286-3.668 5.717-3.698h0.012-0.003l11.728-0.017-0.018 1.122-0.127 12.75s-9.516 0.006-9.696 0.006c0.007 2.068 0.012 3.759 0.013 4.38 1.483 0 5.069-0.003 5.536-0.003 0.426-0.258 4.019-2.426 4.019-2.426l0.012 8.499-11.911 0.015c-1.795-0.082-3.583-0.317-4.76-2.186m-14.091 2.183h-7.404s0.003-6.103 0.004-9.926c-2.175 3.732-5.777 9.92-5.777 9.92l-9.12-0.003s1.705-3.768 1.873-4.14c-0.001-0.457-0.019-15.641-0.02-16.113-0.175-0.375-1.905-4.081-1.905-4.081l9.138 0.006s0.009 6.466 0.015 10.535c2.17-3.984 5.737-10.529 5.737-10.529l7.385-0.003s0.008 19.825 0.008 20.27c0.156 0.358 1.751 4.064 1.751 4.064h-1.685zm-44.064-9.979c0.358-1.743 0.556-2.701 0.718-3.498-0.627 0-0.798 0-1.427-0.003 0.162 0.797 0.355 1.755 0.709 3.501m4.96 10.011-10.819-0.012l-3.762-20.226-2.531-4.114h9.891s0.577 4.307 0.753 5.631h3.013c0.206-1.3 0.889-5.636 0.889-5.636l9.602 0.014s-2.205 4.169-2.345 4.436c-0.062 0.322-3.772 19.907-3.772 19.907h-0.919zm-46.686-1.122v-9.41s5.071 3.969 5.587 4.374h1.647v-14.177c-0.194-0.39-1.995-3.993-1.995-3.993l11.932-0.059s-1.762 3.873-1.931 4.248c0 0.428-0.013 12.106-0.014 13.99 0.726-0.003 1.231-0.006 1.571-0.006 0.512-0.399 5.591-4.336 5.591-4.336v10.453l-22.388 0.026v-1.11zm145.72 1.093c-3.845-0.018-9.713-0.041-10.115-0.024l-0.137 0.003c-1.563-0.035-3.926-0.085-5.344-2.077-0.828-1.128-0.891-2.408-0.946-3.536 0-0.056 0.016-3.923 0.016-3.923 0.004-0.032 0.218-1.79 0.218-1.79l0.02-0.091c0.919-3.41 3.997-3.457 6.033-3.486 0 0 2.633 0.006 4.163 0.006-0.005-1.07-0.009-2.274-0.015-3.334-1.474-0.003-5.017-0.012-5.464-0.012-0.435 0.246-4.659 2.646-4.659 2.646l-0.018-8.684 1.106-0.006c8.231-0.029 10.025-0.035 10.556 0.024-0.05-0.015-0.119-0.03-0.119-0.03 1.657 0.006 3.921 0.015 5.369 1.72 0.562 0.659 1.139 1.957 1.161 3.36 0 0.006 0.037 3.451 0.037 3.451-0.021 1.383-0.031 2.262-0.296 3.206-0.889 3.401-4.14 3.436-6.513 3.46 0 0-2.283-0.003-3.679-0.003 0 1.004-0.002 2.003-0.003 3.008 1.426 0 4.511 0.006 4.901 0.009 0.407-0.202 4.843-2.399 4.843-2.399v8.508l-1.115-0.006zm-158.29 0c-3.853-0.012-9.732-0.024-10.135-0.006-1.664-0.029-4.032-0.082-5.462-2.092-0.829-1.128-0.892-2.408-0.946-3.536-0.001-0.056 0.015-3.923 0.015-3.923 0.004-0.032 0.217-1.79 0.217-1.79l0.022-0.091c0.918-3.41 3.996-3.457 6.031-3.486 0 0 2.634 0.006 4.163 0.006-0.004-1.07-0.01-2.274-0.015-3.334-1.471-0.003-5.016-0.012-5.463-0.012-0.434 0.246-4.661 2.646-4.661 2.646l-0.015-8.684 1.106-0.006c8.23-0.029 10.023-0.035 10.554 0.024-0.05-0.015-0.117-0.03-0.117-0.03 1.653 0.006 3.92 0.015 5.366 1.72 0.564 0.659 1.14 1.957 1.163 3.36 0 0.006 0.037 3.451 0.037 3.451-0.02 1.383-0.031 2.262-0.295 3.206-0.891 3.401-4.14 3.436-6.513 3.46 0 0-2.284-0.003-3.68-0.003-0.001 1.004-0.002 2.003-0.003 3.008 1.425 0 4.512 0.006 4.901 0.009 0.407-0.202 4.842-2.399 4.842-2.399v8.505l-1.112-0.003zm-49.34-1.579s1.075-2.183 1.268-2.573c-0.001-0.501-0.014-14.273-0.014-14.273 0-1.491 0.186-2.473 0.194-2.514 0.884-3.378 4.571-3.372 7.012-3.369 0 0-0.024 0.003-0.033 0.003 0.233-0.009 0.764-0.006 2.27-0.003 1.143 0.006 1.823 0.009 2.262 0.05-0.007-0.006-0.056-0.035-0.056-0.035 1.193-0.003 4.357-0.006 5.729 2.765 0.563 1.076 0.58 2.262 0.595 3.305v14.153c0.18 0.381 1.946 4.087 1.946 4.087l-9.863-0.017s0.03-16.26 0.033-18.22h-2.189c-0.001 1.957-0.012 18.223-0.012 18.223l-9.93 0.02 0.788-1.602zm-40.75-0.182s1.619-2.092 1.992-2.575c0-0.709 0.012-15.604 0.012-16.09-0.186-0.378-1.888-3.882-1.888-3.882h9.191s0.003 6.58 0.004 10.591c1.809-3.135 5.015-8.687 5.015-8.687s3.136 5.625 4.925 8.833c0.009-4.087 0.025-10.725 0.025-10.725l9.454-0.024s-1.822 3.868-2.001 4.251c0 0.469 0.021 15.243 0.022 15.999 0.401 0.478 3.431 4.087 3.431 4.087l-10.481-0.011s-4.014-7.287-5.396-9.797c-1.347 2.519-5.242 9.805-5.242 9.805l-10.448 0.015 1.385-1.79z" fill="#fff"/><g fill="#003831"><path d="m214.72 482.01-2.159-2.572-0.024-16.653 1.361-2.888-6.6 0.014-0.032 13.867-6.039-10.831-6.104 10.57-0.007-13.611h-6.31l1.224 2.516-0.012 16.726-2.224 2.871 7.523-0.009 5.892-11.021 6.065 11.012 7.446 0.009z"/><path d="m247.08 482.01-1.296-2.728v-14.381c-0.015-0.97-0.029-1.969-0.481-2.833-1.058-2.139-3.543-2.151-4.733-2.151-0.004-0.009-4.446-0.02-4.446-0.014-2.89-0.003-5.329 0.205-5.924 2.469 0 0-0.173 0.903-0.173 2.306s0.013 14.531 0.013 14.531l-1.38 2.804 7.039-0.012 0.012-18.225h4.408l-0.033 18.219 6.994 0.015z"/><path d="m261.79 471.95c0 0.006-0.207 1.693-0.207 1.693-0.007 0.085-0.011 3.765-0.011 3.765 0.054 1.087 0.107 2.086 0.742 2.95 1.104 1.55 2.971 1.597 4.484 1.629 0-0.029 10.215 0.003 10.215 0.003v-5.61l-3.476 1.722-6.269-0.008 0.005-5.227s3.183-0.003 4.776 0.006c2.783-0.029 4.821-0.223 5.457-2.649 0.225-0.814 0.235-1.596 0.254-2.897l-0.038-3.445c-0.016-1.073-0.463-2.154-0.898-2.663-1.13-1.331-3.042-1.322-4.582-1.328-0.072-0.029-10.373 0.009-10.373 0.009l0.011 5.678 3.263-1.852 6.86 0.012 0.024 5.552s-3.506-0.012-5.259-0.009c-2.484 0.038-4.334 0.275-4.978 2.669"/><path d="m420.08 471.95c0 0.006-0.208 1.693-0.208 1.693-0.007 0.085-0.01 3.765-0.01 3.765 0.052 1.087 0.107 2.086 0.742 2.95 1.103 1.55 2.989 1.576 4.503 1.612 0-0.03 10.194 0.02 10.194 0.02v-5.61l-3.476 1.722-6.268-0.008 0.004-5.227s3.185-0.003 4.777 0.006c2.784-0.029 4.821-0.223 5.457-2.649 0.225-0.814 0.234-1.596 0.255-2.897l-0.038-3.445c-0.016-1.073-0.465-2.154-0.898-2.663-1.131-1.331-3.043-1.322-4.584-1.328-0.07-0.029-10.372 0.009-10.372 0.009l0.01 5.678 3.264-1.852 6.861 0.012 0.023 5.552s-3.507-0.012-5.258-0.009c-2.485 0.038-4.335 0.275-4.978 2.669"/><path d="m310.85 481.99v-7.087l-4.1 3.182-3.062 0.009 0.016-15.34 1.314-2.892-8.417 0.044 1.314 2.631v15.548l-3.138-0.003-4.096-3.205v7.134l20.169-0.021z"/><path d="m329.24 468.51 4.141 0.009-2.086 10.154-2.055-10.163zm-6.505-6.021 3.631 19.524 9.898 0.009 3.631-19.169 1.566-2.956-6.817-0.009-0.888 5.634-4.931-0.003-0.752-5.631h-6.938l1.6 2.601z"/><path d="m356.03 462.59 0.018 16.6-1.263 2.792 6.763 0.003 7.528-12.923-0.006 12.928h6.294l-1.173-2.727-0.01-19.392-5.618 0.003-7.497 13.761-0.02-13.767-6.29-0.003 1.274 2.725z"/><path d="m394.68 459.88c-1.469 0.032-3.949 0.111-4.671 2.886-0.204 0.735-0.412 3.72-0.412 3.72-0.035 2.825 0.073 5.661 0.038 8.479 0 0-0.202 3.826 0.766 5.358 0.859 1.366 2.104 1.588 3.809 1.664 3.611-0.041 10.813-0.011 10.813-0.011l-0.007-5.432-2.605 1.573-6.949 0.006-0.044-14.37 4.585-0.003v4.96l-1.629 2.813 6.778-0.003 0.116-11.655s-7.055-0.029-10.588 0.015"/></g><path d="m331.98 533.04c0.056 1.458-1.107 3.19-1.339 3.526-1.251 1.621-4.507 5.85-4.969 6.511-0.436 0.633-2.352 5.558-2.537 6.346-0.231 0.943-1.098 1.784-1.463 2.111-0.081 0.09-3.207 4.085-3.713 4.68 0.035 0.8 0.908 8.521 0.908 8.521s-0.671 3.001-0.996 4.432c0.732 0.178 1.488 0.346 1.488 0.346 1.06 0.227 2.087 1.045 2.3 1.212l0.178 0.152s0.494 0.958 0.747 1.459c1.503 0.545 2.201 2.057 2.374 2.965 0.011 0.044 0.24 1.717 0.369 2.552 0.114 0.09 0.234 0.172 0.309 0.21 0.735 0.334 1.17 1.146 1.333 1.473 1.05 2.399 1.248 3.319 1.261 3.742 0 0.135 0.003 0.223-0.013 0.29-0.106 0.617-0.465 1.521-0.535 1.705l-0.041 0.087s-1.242 2.017-1.575 2.559c0.088 0.697 0.566 4.869 0.566 4.869s-0.194 4.92-0.21 5.306c0.487 1.569 1.354 4.11 1.752 4.781 0.636 1.077 1.24 3.583 1.291 5.106 0.012 0.34 0 0.627-0.043 0.828-0.228 1.042-1.548 3.658-2.068 4.462-0.22 0.378-0.882 2.392-1.474 4.375 1.055 0.487 2.329 1.358 2.965 2.662 0.916 1.899 1.878 4.086 2.045 5.861l0.796 6.545-1.669-0.375c-1.362-0.328-3.945-2.077-4.348-3.47-0.184-0.582-1.836-2.94-2.51-3.491-0.238-0.185-0.569-0.388-0.9-0.566-0.618 1.202-1.533 2.286-1.552 2.303-1.401 1.632-2.621 2.46-4.202 2.86-3.581 0.909-6.288 1.664-6.895 1.926-0.632 0.287-1.057 0.786-1.205 1.024 0.003 0.038-0.009 0.061 0 0.117 0.01 0.415 0.111 1.195 0.23 1.913l0.423 2.461-2.184-1.213c-1.318-0.719-3.007-3.023-3.212-4.91-0.043-0.369-0.056-0.721-0.074-1.074-2.677 1.217-4.686 0.929-4.793 0.907l-2.459-0.391 1.847-1.677c0.952-0.862 1.822-2.3 2.389-3.393-1.145-0.138-2.364-0.259-2.869-0.193-0.679 0.079-0.849 0.265-1.407 0.858l-0.155 0.164c-0.366 0.399-1.63 2.496-2.636 4.28l-1.89 3.368-0.35-3.851c-0.008-0.047-0.008-0.094-0.008-0.138-0.027-0.969 0.38-3.101 3.534-9.644l0.12-0.243c0.14-0.292 0.294-0.611 2.165-1.563-0.779-0.274-1.667-0.611-2.71-1.018-1.236-0.475-2.926-1.125-3.33-1.172-0.559-0.03-2.516 0.635-3.995 1.284 0 0 1.356-4.571 3.132-5.298 0.588-0.252 1.484-0.431 2.41-0.57-0.857-0.537-1.582-1.044-1.892-1.287-0.838-0.633-6.236-2.154-7.495-2.111-0.606 0.028-2.141 0.956-3.191 1.809l-2.3 1.882 0.349-2.952c0.025-0.152 0.523-4.032 4.601-5.518 1.424-0.505 2.98-0.619 4.395-0.552-1.418-1.482-2.987-3.351-4.539-5.244l-0.864-1.052c-0.66-0.75-4.628-2.382-5.977-2.636-0.897-0.17-2.328 0.017-2.805 0.108l-3.607 0.715 2.501-2.704c0.56-0.607 2.643-2.283 4.338-2.353 0.515-0.015 1.505 0.103 2.55 0.27-0.151-0.194-0.292-0.352-0.408-0.51-2.16 0.003-7.874-0.441-8.749-0.835-0.348-0.161-1.489-1.091-2.824-2.238h-0.005c-0.007-0.005-0.018 0-0.026-0.021 0.013 0.021 0.019 0.016 0.031 0.021-0.007 0.556 0.002 1.084 0.064 1.375 0.168 0.813 2.606 3.878 2.606 3.878s-3.347-1.651-4.069-2.322c-0.698-0.658-2.047-3.892-2.047-3.892l0.226-1.04 0.147-0.679c0.034 0.036-0.145-0.124-0.272-0.238-0.443-0.393-0.851-0.761-1.197-1.078-0.306-0.268-0.446-0.387-0.434-0.387-0.068 0.184-0.121 0.378-0.162 0.598-0.394 1.945 0.12 4.825 1.826 6.515 2.13 2.11 4.708 3.854 4.708 3.854s0.81 4.05 0.775 3.983c0.048 0.447-0.194 0.932-1.045 1.324-1.615 0.73-5.506 2.93-7.567 2.863-2.047-0.056-9.589-0.466-9.589-0.466s8.01-1.666 9.359-2.401c1.34-0.725 3.549-3.82 3.549-3.82 1.83 0.235 3.205 0.634 4.036 1.038-1.593-1.454-3.961-2.96-3.961-2.96s-3.193-1.122-5.182-2.964c-1.978-1.842-2.753-8.118-2.753-8.118s-1.823 2.537-0.613 5.777c1.214 3.238 5.848 6.225 5.848 6.225-2.627-0.315-6.57-3.456-7.138-4.118-0.578-0.662-2.698-2.651-1.882-6.652 0.575-2.802 2.561-5.458 3.699-6.784-1.505-1.754-2.873-3.647-3.503-5.313-1.251-3.253-2.582-8.025-2.752-12.782-0.038-1.097 0.381-3.019 0.427-4.022 0.226-5.132 6.278-17.146 7.057-18.589-0.034-0.107-0.79-0.869-0.894-1.097-0.291-0.607-0.53-1.263-0.55-1.953-0.039-1.005 0.381-2.076 1.76-3.208 1.22-0.977 4.456-2.946 6.12-3.935-0.285-0.575-0.562-1.261-0.576-1.835-0.037-0.967 0.104-1.397 0.619-1.931l0.07-0.067s0.368-0.398 0.727-0.782c-0.563-1.193-3.378-7.122-3.378-7.122l2.349-3.39 8.692-3.284s1.885-0.384 2.643-0.287c0.318-0.882 0.736-1.96 0.904-2.438-0.12-0.381-0.205-0.759-0.219-1.134-0.047-1.227 0.427-2.408 1.04-3.187 0.325-0.407 0.468-0.867 0.465-1.04-0.711-0.785-2.199-4.702-3.317-7.33l-0.293-0.662 0.459-0.569c0.061-0.064 0.763-0.553 2.678-2.297 2.14-1.948 6.048-2.431 6.205-2.449l0.285-0.032 5.009 1.846 0.084 0.732c0.197 1.679 0.751 6.205 0.849 6.859 0.044 0.228 0.076 0.55 0.085 0.902 0.035 1.058-0.06 2.516-0.456 3.369l-0.791 1.532c-0.401 0.727-1.134 2.086-1.237 2.426-0.016 0.094-0.023 0.24-0.016 0.398 0.009 0.469 0.139 1.123 0.247 1.372 0.298 0.647 0.36 1.801 0.378 2.264l0.012 0.226s-0.592 1.705-1.006 2.906c1.566 0.261 4.592 0.76 4.592 0.76l0.283 0.34c1.312 1.569 3.964 4.695 4.54 5.301 0.863 0.926 1.701 3.43 1.936 4.187l0.04 0.098 0.01 0.1c0.384 2.96 1.021 7.803 1.102 8.254 0 0 0.915 5.983 1.328 7.973 1.272-0.3 2.166 0.312 2.729 0.541 1.262-0.687 2.768 0.492 3.556 0.794 1.413-0.961 4.021-2.505 6.032-3.084 2.228-0.647 8.373-4.553 9.146-5.046 1.133-0.724 1.159-2.051 1.14-2.753-0.01-0.104-0.494-2.064-0.494-2.064-0.044-0.865-1.522-4.81-3.003-8.783-0.562-0.313-1.873-1.002-2.308-1.415-0.422-0.387-1.339-3.129-2.2-4.176-2.965 1.353-4.985 0.851-5.305 0.76-0.848-0.211-4.576-2.133-5.466-3.237-0.878-1.072-1.626-4.433-1.687-5.988-0.015-0.706 0.563-2.151 1.036-3.094 0 0 2.115-1.913 3.157-2.59 0 0 3.015-1.45 3.882-1.597l0.486-0.096c0.571-0.132 1.276-0.279 2.016 0.234 0.444 0.311 5.095 3.138 6.033 3.891l0.238 0.19s1.715 4.181 1.911 4.649c0.825 0.721 3.123 2.743 3.736 3.504 0.589 0.718 0.852 2.265 1.224 4.711l0.358 2.034c0.202 0.795 1.018 2.047 1.737 3.155l0.97 1.541c0.826 1.415 1.397 3.829 1.579 4.643 0.428 0.607 0.908 1.196 1.084 1.33 0.662 0.487 1.462 1.741 1.699 2.116l0.191 0.296-0.006 0.366c-0.035 1.722-1.125 4.008-1.096 4.866" fill="#fff"/><path d="m332.89 527.51c-0.237-0.375-1.037-1.629-1.699-2.115-0.176-0.135-0.656-0.724-1.084-1.33-0.182-0.815-0.753-3.229-1.579-4.644l-0.97-1.541c-0.719-1.107-1.535-2.36-1.737-3.155l-0.358-2.033c-0.372-2.447-0.636-3.994-1.224-4.711-0.613-0.762-2.911-2.783-3.736-3.504-0.196-0.469-1.911-4.65-1.911-4.65l-0.238-0.19c-0.939-0.753-5.589-3.58-6.033-3.891-0.74-0.512-1.445-0.366-2.016-0.234l-0.486 0.097c-0.867 0.146-3.882 1.596-3.882 1.596-1.042 0.677-3.157 2.59-3.157 2.59-0.473 0.944-1.051 2.388-1.036 3.094 0.061 1.556 0.809 4.916 1.687 5.988 0.889 1.105 4.618 3.027 5.466 3.237 0.32 0.091 2.34 0.594 5.305-0.76 0.861 1.048 1.778 3.79 2.2 4.177 0.435 0.413 1.746 1.101 2.308 1.415 1.481 3.972 2.959 7.917 3.003 8.783 0 0 0.484 1.96 0.494 2.064 0.019 0.701-0.007 2.029-1.14 2.752-0.773 0.494-6.918 4.399-9.146 5.047-2.011 0.578-4.619 2.122-6.032 3.083-0.788-0.302-2.294-1.481-3.556-0.794-0.564-0.228-1.457-0.841-2.729-0.54-0.413-1.991-1.328-7.974-1.328-7.974-0.082-0.451-0.718-5.294-1.103-8.254l-0.009-0.1-0.04-0.098c-0.235-0.757-1.073-3.26-1.936-4.186-0.576-0.607-3.228-3.733-4.54-5.302l-0.283-0.339s-3.027-0.5-4.592-0.761c0.414-1.201 1.006-2.906 1.006-2.906l-0.013-0.225c-0.017-0.463-0.079-1.618-0.377-2.265-0.108-0.249-0.238-0.902-0.247-1.371-0.007-0.158 0-0.305 0.016-0.399 0.103-0.339 0.836-1.699 1.237-2.425l0.791-1.533c0.396-0.852 0.491-2.311 0.455-3.369-0.008-0.351-0.04-0.674-0.084-0.902-0.098-0.653-0.652-5.18-0.849-6.859l-0.085-0.732-5.008-1.846-0.286 0.033c-0.156 0.017-4.064 0.501-6.204 2.449-1.915 1.743-2.617 2.232-2.678 2.297l-0.459 0.568 0.293 0.662c1.118 2.628 2.606 6.545 3.317 7.33 0.003 0.173-0.14 0.633-0.466 1.04-0.613 0.78-1.086 1.96-1.039 3.188 0.014 0.375 0.099 0.753 0.218 1.134-0.167 0.477-0.586 1.555-0.903 2.437-0.758-0.097-2.643 0.287-2.643 0.287l-8.692 3.284-2.349 3.39s2.815 5.93 3.378 7.122c-0.359 0.384-0.728 0.782-0.728 0.782l-0.069 0.068c-0.515 0.533-0.656 0.964-0.619 1.93 0.014 0.575 0.291 1.26 0.576 1.836-1.664 0.989-4.9 2.957-6.12 3.934-1.379 1.133-1.799 2.203-1.761 3.208 0.021 0.69 0.26 1.347 0.551 1.953 0.104 0.229 0.86 0.99 0.894 1.097-0.779 1.443-6.831 13.458-7.057 18.589-0.046 1.003-0.465 2.925-0.427 4.022 0.17 4.757 1.501 9.529 2.752 12.783 0.63 1.665 1.998 3.558 3.503 5.313-1.138 1.325-3.124 3.981-3.699 6.783-0.816 4.001 1.304 5.99 1.882 6.652 0.568 0.662 4.511 3.803 7.138 4.118 0 0-4.634-2.987-5.849-6.224-1.209-3.24 0.613-5.778 0.613-5.778s0.776 6.276 2.754 8.119c1.989 1.841 5.182 2.963 5.182 2.963s2.367 1.506 3.96 2.96c-0.83-0.404-2.205-0.802-4.035-1.038 0 0-2.209 3.095-3.549 3.82-1.35 0.736-9.359 2.401-9.359 2.401s7.541 0.41 9.588 0.466c2.062 0.067 5.953-2.133 7.568-2.862 0.851-0.393 1.093-0.878 1.045-1.325 0.034 0.068-0.775-3.983-0.775-3.983s-2.578-1.744-4.709-3.854c-1.705-1.69-2.219-4.57-1.825-6.515 0.04-0.22 0.094-0.413 0.162-0.598-0.012 0 0.128 0.119 0.434 0.387 0.346 0.318 0.754 0.685 1.196 1.078 0.128 0.114 0.307 0.274 0.273 0.239l-0.147 0.678-0.227 1.04s1.349 3.234 2.047 3.892c0.723 0.671 4.07 2.322 4.07 2.322s-2.438-3.065-2.606-3.878c-0.062-0.291-0.071-0.818-0.065-1.375 1.336 1.147 2.477 2.077 2.825 2.238 0.875 0.394 6.588 0.838 8.748 0.835 0.117 0.158 0.258 0.317 0.409 0.51-1.045-0.167-2.035-0.284-2.55-0.27-1.695 0.071-3.778 1.747-4.338 2.353l-2.502 2.704 3.608-0.715c0.477-0.091 1.908-0.278 2.805-0.108 1.349 0.255 5.316 1.887 5.977 2.637l0.864 1.051c1.552 1.893 3.12 3.762 4.538 5.244-1.415-0.067-2.97 0.047-4.394 0.553-4.078 1.485-4.576 5.365-4.601 5.518l-0.349 2.951 2.3-1.882c1.05-0.852 2.585-1.781 3.191-1.809 1.258-0.042 6.656 1.478 7.495 2.111 0.31 0.243 1.035 0.75 1.892 1.287-0.927 0.14-1.822 0.318-2.411 0.57-1.776 0.727-3.131 5.299-3.131 5.299 1.479-0.649 3.436-1.314 3.995-1.285 0.404 0.047 2.094 0.697 3.33 1.172 1.043 0.407 1.931 0.744 2.71 1.018-1.871 0.952-2.025 1.271-2.165 1.563l-0.121 0.243c-3.153 6.544-3.561 8.675-3.534 9.645 0 0.044 0 0.09 0.009 0.137l0.35 3.851 1.89-3.367c1.006-1.784 2.27-3.882 2.636-4.281l0.155-0.164c0.558-0.593 0.728-0.779 1.407-0.858 0.505-0.066 1.724 0.056 2.868 0.193-0.566 1.093-1.436 2.532-2.388 3.393l-1.847 1.677 2.459 0.391c0.107 0.022 2.116 0.311 4.793-0.906 0.018 0.353 0.031 0.704 0.074 1.073 0.205 1.887 1.894 4.191 3.212 4.91l2.184 1.213-0.423-2.461c-0.119-0.717-0.22-1.498-0.23-1.913-0.009-0.055 0.003-0.079 0-0.117 0.148-0.237 0.572-0.737 1.205-1.024 0.607-0.262 3.314-1.016 6.895-1.926 1.581-0.4 2.801-1.228 4.201-2.859 0.019-0.018 0.935-1.102 1.553-2.303 0.331 0.177 0.662 0.381 0.9 0.565 0.673 0.551 2.326 2.909 2.51 3.491 0.403 1.393 2.986 3.142 4.348 3.47l1.668 0.375-0.795-6.545c-0.167-1.775-1.129-3.962-2.045-5.861-0.636-1.303-1.91-2.175-2.965-2.661 0.592-1.984 1.254-3.998 1.474-4.376 0.52-0.804 1.84-3.42 2.068-4.462 0.043-0.2 0.054-0.487 0.043-0.827-0.052-1.524-0.655-4.03-1.291-5.107-0.398-0.671-1.265-3.212-1.752-4.781 0.016-0.385 0.21-5.306 0.21-5.306s-0.478-4.172-0.566-4.869c0.333-0.542 1.575-2.559 1.575-2.559l0.041-0.086c0.07-0.185 0.429-1.089 0.535-1.705 0.016-0.068 0.013-0.156 0.013-0.29-0.013-0.424-0.211-1.344-1.261-3.743-0.163-0.327-0.598-1.138-1.333-1.472-0.075-0.038-0.195-0.12-0.309-0.211-0.129-0.835-0.358-2.508-0.37-2.552-0.172-0.908-0.87-2.42-2.373-2.965-0.253-0.501-0.747-1.459-0.747-1.459l-0.178-0.152c-0.213-0.167-1.24-0.984-2.3-1.212 0 0-0.756-0.168-1.489-0.345 0.326-1.431 0.997-4.433 0.997-4.433s-0.873-7.721-0.909-8.521c0.507-0.595 3.633-4.589 3.714-4.68 0.365-0.327 1.232-1.168 1.463-2.111 0.185-0.788 2.101-5.713 2.537-6.346 0.462-0.66 3.718-4.889 4.969-6.511 0.231-0.335 1.395-2.068 1.339-3.526-0.029-0.858 1.06-3.143 1.096-4.866l0.005-0.366-0.19-0.296zm-91.235 63.955c-2.084-0.882-4.626-0.841-7.247 0.132-0.109 0.032-1.735 1.286-1.735 1.286 5.998-0.762 9.635 1.44 11.041 2.48 1.408 1.053 2.662 1.685 2.662 1.685-1.092 0.171-8.014-1.899-8.014-1.899 2.115 1.569 3.12 2.766 7.375 3.153 4.264 0.399 5.471-0.195 7.643-0.809 2.163-0.643 6.187-2.972 6.187-2.972-1.102-0.107-4.758-2.838-4.758-2.838-4.663 3.447-11.066 0.667-13.154-0.218m87.179 22.658c-0.016 0.037-0.043 0.079-0.048 0.094 0 0 0.046-0.081 0.048-0.094m-2.463-37.611c-0.002 0-0.026-0.009-0.026-0.009 0.009 0 0.016 0.016 0.035 0.016l-0.009-0.007zm8.422-48.292c-0.043 1.197-0.441 2.504-0.76 3.541-0.132 0.444-0.311 1.049-0.339 1.251 0-0.009 0.009-0.022 0.009-0.035l-0.01 0.058 0.006-0.014c0.051 1.864-1.137 3.789-1.647 4.513l-0.023 0.048-0.034 0.024c-2.752 3.571-4.56 5.951-4.894 6.419-0.396 0.678-2.112 5.065-2.307 5.809-0.298 1.196-1.13 2.178-1.83 2.833-0.082 0.094-0.622 0.785-0.622 0.785s-1.966 2.473-2.605 3.305c0.122 1.357 0.489 4.723 0.838 7.778l0.031 0.29s-0.393 1.767-0.695 3.077c1.275 0.309 2.391 1.136 2.831 1.488l0.462 0.39s0.419 0.823 0.642 1.248c1.652 0.902 2.537 2.622 2.795 3.939 0.012 0.038 0.161 1.111 0.271 1.888 0.842 0.586 1.375 1.429 1.607 1.955 1.222 2.785 1.4 3.784 1.421 4.402l-0.028 0.639c-0.126 0.751-0.489 1.684-0.645 2.054l-0.086 0.232s-0.942 1.522-1.334 2.182c0.101 0.911 0.511 4.4 0.511 4.4s-0.185 4.595-0.211 5.139c0.658 2.071 1.292 3.797 1.504 4.145 0.825 1.401 1.467 4.236 1.525 5.911l-0.08 1.258c-0.283 1.31-1.669 4.014-2.24 4.94-0.116 0.219-0.456 1.189-0.938 2.748 0.895 0.597 1.872 1.448 2.473 2.707 0.984 2.036 2.011 4.382 2.213 6.433-0.001-0.036 0.78 6.507 0.78 6.507l0.288 2.414-4.037-0.915c-1.831-0.427-4.994-2.514-5.623-4.669 0.019 0.034 0.039 0.106 0.039 0.106-0.145-0.34-0.841-1.341-1.387-2.054-0.377 0.513-0.658 0.842-0.661 0.847-1.626 1.895-3.146 2.918-5.086 3.41-4.198 1.057-6.246 1.664-6.6 1.835-0.062 0.013-0.097 0.054-0.15 0.092 0.038 0.327 0.091 0.704 0.153 1.084l1.043 5.987-3.138-1.73-2.183-1.21c-1.516-0.829-3.246-2.982-3.882-5.185-2.008 0.51-3.44 0.332-3.64 0.302 0 0-3.181-0.519-3.851-0.622-0.535 0.956-4.284 7.616-4.284 7.616l-0.824-9.37c-0.008-0.033-0.02-0.241-0.02-0.241-0.046-1.265 0.358-3.508 3.698-10.447 0 0.003 0.119-0.242 0.119-0.242 0.051-0.115 0.13-0.2 0.191-0.303-0.767-0.302-2.11-0.817-2.623-0.952-0.473 0.088-1.839 0.524-3.199 1.122l-3.383 1.471 1.043-3.533c0.326-1.07 1.393-4.213 3.14-5.751-1.66-0.566-4.38-1.282-5.182-1.316-0.37 0.123-1.38 0.702-2.249 1.42l-5.594 4.563 0.851-7.169c0.218-1.878 1.67-5.453 5.718-6.925 0.434-0.159 0.908-0.265 1.387-0.367-0.815-0.961-1.597-1.909-2.277-2.734 0.005 0.003-0.631-0.757-0.787-0.956-0.625-0.517-3.936-1.915-5.045-2.127-0.49-0.098-1.593 0.004-2.16 0.104 0 0-1.511 0.299-2.566 0.504 0.01 0.038 0.083 0.307 0.083 0.307l-0.193 0.049c0.051 0.3 0.063 0.591 0.014 0.887-0.11 0.711-0.559 1.686-2.018 2.36l-1.099 0.528c-2.715 1.349-5.304 2.557-7.23 2.504l-15.548-1.333 5.699-1.857c-1.171 0.161-2.631 0.202-4.754 0.006-4.211-0.396-5.728-1.569-7.496-2.925 0 0-1.739-2.557-1.741-2.486-1.463-0.323-1.351-0.28-3.452-0.015l-6.271 0.798 5.011-3.855c1.834-1.424 1.909-1.452 2.191-1.556 3.001-1.106 6.026-1.15 8.508-0.089l0.084 0.028c1.871 0.797 6.535 2.758 10.235 1.041-0.069-0.064-0.126-0.127-0.169-0.181l-0.121-0.126c-0.612-0.689-2.246-2.491-2.351-5.571-0.024-0.731 0.026-1.541 0.201-2.395 0.519-2.517 1.979-4.858 3.185-6.457-1.391-1.752-2.389-3.331-2.896-4.685-0.992-2.578-2.669-7.725-2.869-13.347-0.029-0.793 0.11-1.777 0.255-2.737l0.17-1.428c0.22-4.973 5.103-15.037 6.732-18.27-0.17-0.215-0.313-0.401-0.406-0.602-0.291-0.612-0.676-1.538-0.713-2.62-0.067-1.717 0.738-3.273 2.4-4.601 1.046-0.84 3.298-2.256 5.086-3.343-0.101-0.36-0.168-0.715-0.179-1.04-0.041-1.172 0.123-2.158 1.073-3.148-0.719-1.534-3.301-6.98-3.301-6.98l3.221-4.646 9.328-3.522 0.135-0.023c0.375-0.08 1.062-0.214 1.768-0.282 0.155-0.422 0.22-0.571 0.316-0.867-0.07-0.325-0.129-0.65-0.132-0.967-0.058-1.438 0.434-2.962 1.289-4.133-0.515-0.938-1.148-2.412-2.091-4.688l-0.879-2.115c-0.006 0.003-0.693-1.623-0.693-1.623l1.109-1.368c0.003 0 0.447-0.413 0.447-0.413l2.422-2.081c0.483-0.442 1.04-0.82 1.609-1.142 0 0 2.359-1.04 3.437-1.348 1.082-0.307 2.159-0.486 2.159-0.486s4.772 0.973 7.115 3.237l0.103 0.897c0.354 2.938 0.765 6.304 0.847 6.805l0.097 1.111c0.035 0.791 0.028 2.765-0.597 4.142l-0.024 0.053-0.823 1.562c-0.246 0.448-0.863 1.59-1.05 2.021 0.024 0.27 0.086 0.627 0.121 0.727l-0.01-0.039c0.366 0.835 0.487 2.045 0.52 2.901l0.014 0.539s-0.293 0.847-0.44 1.289c1.27 0.214 3.208 0.527 3.208 0.527l0.689 0.827c1.52 1.806 3.967 4.687 4.484 5.223 1.049 1.113 1.9 3.517 2.319 4.849l0.078 0.24 0.029 0.249c0.468 3.605 1.021 7.731 1.095 8.148l0.013 0.07c0.005 0.053 0.61 4.008 1.051 6.51 0.572 0.079 1.046 0.263 1.415 0.427 1.306-0.277 2.527 0.255 3.341 0.676 1.661-1.058 3.857-2.249 5.662-2.773 1.199-0.343 4.497-2.186 8.632-4.802l0.078-0.043c0.161-0.102 0.334-0.345 0.322-1.12-0.038-0.198-0.478-1.984-0.478-1.984l-0.008-0.208 0.003 0.044c-0.104-0.788-1.558-4.703-2.668-7.693-0.915-0.501-1.658-0.938-2.102-1.345-0.422-0.401-0.677-0.961-1.187-2.089-0.161-0.363-0.366-0.817-0.562-1.239-2.319 0.747-4.069 0.554-4.998 0.324-1.012-0.254-5.137-2.287-6.386-3.828-1.246-1.538-2-5.385-2.056-7.022-0.045-1.254 0.829-3.15 1.214-3.914l0.145-0.279 0.239-0.222c0.225-0.208 2.239-2.019 3.354-2.754l0.091-0.068 0.107-0.046c0.977-0.463 3.342-1.577 4.358-1.747-0.052 0.012 0.422-0.084 0.422-0.084 0.678-0.138 1.987-0.428 3.342 0.524-0.006-0.006 1.214 0.759 1.214 0.759 2.197 1.368 4.223 2.634 4.906 3.19l0.59 0.466s1.658 4.061 1.925 4.693c1.207 1.067 3.014 2.69 3.633 3.454 0.878 1.081 1.18 2.807 1.589 5.523-0.004-0.031 0.262 1.488 0.332 1.897 0.144 0.53 0.989 1.832 1.506 2.615 0.012 0.023 0.985 1.567 0.985 1.567 0.858 1.481 1.441 3.659 1.712 4.835 0.3 0.381 0.541 0.67 0.609 0.731 0.767 0.611 1.534 1.701 2.044 2.52l0.461 0.747-0.02 0.877z" fill="#b38f4f"/><path d="m333.7 532.98c0 0.013-0.009 0.026-0.009 0.035l-0.001 0.024 0.01-0.059z" fill="#b38f4f"/><path d="m266.66 586.72h0.004c-0.011-0.004-0.017 0-0.03-0.021 0.008 0.021 0.019 0.017 0.026 0.021"/><path d="m313.25 574.23c-0.504 0.555-0.766 3.031-1.107 3.56-0.331 0.542-1.435 1.636-1.435 1.636s0.071-2.906-0.045-3.604c-0.11-0.707 0.431-2.827 1.04-3.211 0.588-0.372 4.163-1.11 4.163-1.11s3.456 0.404 3.823 0.738c0.358 0.337 0.677 1.654 0.677 1.654l-4.345-0.725s-2.271 0.514-2.771 1.062" fill="#fff"/><path d="m217.16 29.789c-0.38875 0.37375-0.95469 1.059-1.6484 1.959-6.4625 10.282-13.055 28.881-13.055 28.881s-12.521 7.8953-14.152 9.0703c-1.4512 1.04-7.9813 9.6091-9.5176 11.633-0.20875 0.27375-0.3164 0.43359-0.3164 0.43359l-0.42969 0.66602c0.5525-4.5375 1.268-7.589 1.9356-9.6465 0 0-0.00016 0.0039-0.004 0.0039-4.12 0.4225-10.182 3.6578-13.258 5.3516-0.2025 0.11375-0.3968 0.24078-0.62305 0.39453-0.0912 0.06875-0.19758 0.13945-0.29883 0.2207-0.1325 0.09625-0.26469 0.19117-0.39844 0.29492-0.12999 0.10125-0.25351 0.21375-0.38476 0.3125-0.12375 0.10625-0.2482 0.1975-0.37695 0.3125-0.14875 0.1275-0.29547 0.25969-0.44922 0.39844-0.115 0.10625-0.24094 0.21258-0.36719 0.33008-0.1675 0.14125-0.32859 0.29484-0.49609 0.46484-0.1175 0.1025-0.23071 0.20836-0.34571 0.31836-0.18 0.17625-0.36648 0.35406-0.55273 0.53906-0.10625 0.0975-0.20094 0.20398-0.30469 0.30274-0.205 0.19375-0.40687 0.38891-0.60937 0.59766-0.0937 0.09125-0.17368 0.17844-0.26368 0.27344-0.2125 0.2125-0.43078 0.44281-0.64453 0.66406-0.0762 0.07-0.14664 0.15125-0.21289 0.21875-0.23625 0.2375-0.45961 0.47711-0.69336 0.72461-0.0412 0.0475-0.0888 0.09805-0.14257 0.1543-0.24876 0.2525-0.49594 0.53102-0.74219 0.79102-0.0162 0.0125-0.0216 0.03328-0.0391 0.05078-1.6375 1.755-3.0722 3.3885-3.8672 4.3223-0.0162 0.0225-0.0319 0.03453-0.0469 0.05078-0.10875 0.1175-0.20976 0.22898-0.29101 0.33398-0.035 0.10625-0.0834 0.21609-0.13086 0.30859-1.8038 4.27-3.083 9.1212-3.2168 12.656-0.1925 5.365 4.231 15.677 4.791 17.023 0.55625 1.3388 2.3805 3.0187 3.0742 3.5449 0.68126 0.54 7.0938 3.1602 7.0938 3.1602s-6.4803-11.352-6.4766-19.672c-0.0138-8.3275 2.8535-17.352 2.8535-17.352-1.5212 8.5838-0.30594 16.677 0.13281 18.881 0.5225 2.5988 2.9651 6.8238 4.7363 8.4062 1.76 1.5825 9.4922 6.002 9.4922 6.002l0.043-2.5352 3.2871-9.4238s-1.2136-2.9857-0.90234-5.9082c0.3075-2.9338 3.5977-9.8047 3.5977-9.8047-2.245 6 0.56445 17.975 0.56445 17.975-3.0325 5.365-2.7295 10.951-2.457 12.18 0.24875 1.2275 1.5526 5.3219 2.4414 5.8594 0.8975 0.54125 2.4453 0.45117 2.4453 0.45117 5.7925-1.3712 11.25-6.3097 11.506-6.5547-0.0987 0.08-0.46969 0.17227-0.36719-2.7402 0.0875-2.4562 1.6073-4.6086 2.4023-5.5586-0.275-0.18626-0.74101-0.57383-1.5723-1.3301-1.05-0.965-3.1554-1.2954-5.2754-1.3691-2.7062-0.0738-5.4062 0.28265-5.8574 0.34765-0.31125 0.315-0.49414 0.53516-0.49414 0.53516 0.81-5.3488 5.9199-6.4785 5.9199-6.4785l5.4785-0.10156c1.6812 1.2725 6.7129 2.3691 6.7129 2.3691s0.43508-3.6438-0.85742-7.2363c-1.29-3.5938-4.0664-5.5195-4.0664-5.5195s3.2259 0.82281 4.6172 1.7891c1.37 0.95875 4.1582 5.6328 4.1582 5.6328s0.7082-5.6722 0.0957-8.5234c-0.605-2.8762-3.9688-10.799-3.9688-10.799l-3.0254-3.1426c1.8325-0.54875 6.9513-1.6789 8.4551-1.3164 1.5125 0.35125 9.418 6.209 9.418 6.209s-1.312-8.6577-1.5332-11.098c-0.2125-2.4462-3.6766-16.255-4.0254-17.701-0.34625-1.4362 0.6543-3.9238 0.6543-3.9238l6.1367-20.969s-1.9829 9.9498-2.8066 12.666c-0.79875 2.7138-0.56641 4.9551-0.56641 4.9551l1.7793 9.3926s0.0436 1.7233 0.83984 2.0508c0.80625 0.33875 3.6005 1.5509 4.168 2.7871 0.37125 0.8525 0.54266 2.6534 0.72265 4.6934 0.0875 0.9625 0.10001 0.96469 0.0938 0.96094 0.03-0.11625 0.063-0.23539 0.0918-0.33789 0.0588-0.175 0.13727-0.34524 0.19727-0.52148 0.05-0.125 0.0897-0.25055 0.14844-0.37305 0.0987-0.245 0.23101-0.4707 0.35351-0.7207 0.0825-0.12 0.14617-0.26172 0.23242-0.38672 0.15375-0.245 0.33875-0.46727 0.53125-0.69727 0.0937-0.11 0.16735-0.22539 0.27735-0.33789 0.30375-0.30875 0.64984-0.60461 1.0586-0.84961 2.79-1.7875 4.0466 0.2457 4.9766 1.5645l0.26172 1.2246 2.7578 2.7441-2.3242 3.1152s1.3289 3.1249 1.6289 3.7949c0.3025 0.6625 2.9766-0.33008 2.9766-0.33008s0.49977-1.1958 0.60352-1.5195c0.1025-0.25125 1.3164-0.76781 1.9102-1.0078l-0.79883-0.01758s-0.73805-0.90062-0.5918-2.0469c0.14125-1.1388 0.83922-2.0684 1.6367-2.8047 0.37625-0.35 0.80453-0.3518 1.207-0.2168-0.21375-0.155-0.44469-0.29516-0.58594-0.41016-0.43125-0.35125-3.0781 2.8477-3.0781 2.8477s-0.55563-2.8632-1.0781-3.5645c-0.53125-0.66625-2.7126-1.2916-3.3476-1.6504 0 0-0.74469-1.9726-1.5547-3.8613-0.6225-2.5075-1.4863-5.6441-2.5176-8.1641v0.0078s-0.00086-0.0078-0.006-0.0078c-0.11-0.0875-7.759-7.5588-8.709-11.531-0.9575-3.9962 1.132-3.7999 1.8008-3.8887 0 0-1.0164-5.6476-0.37891-7.8301 0 0 0.3725 1.8575 0.84375 3.9062-0.285-1.4888-0.6582-3.5938-0.6582-3.5938s2.3078 3.0677 3.6016 6.0039c0-0.325 0.005-0.64789-0.0117-0.96289 0-0.15625 0.007-0.28828-0.008-0.42578-0.01-0.3975-0.0334-0.78281-0.0684-1.1641-0.195-1.9912-0.8875-3.9317-3.1562-5.8867-0.0238-0.02125-0.0493-0.04484-0.0606-0.05859-0.0675-0.04125-0.13484-0.09688-0.18359-0.14062-0.5425-0.445-1.1534-0.88672-1.8672-1.3242-2.845 0.61125-3.627-0.77734-3.627-0.77734zm13.346 80.662c-0.28656-0.0316-0.56031 0.0916-0.82031 0.36914-0.49375 0.56125-1.5526 1.2611-2.6426 1.8711-1.0812 0.625-2.0996 7.0117-2.0996 7.0117 1.7062 2.6775 8.6535 7.0911 9.916 8.3711 1.2638 1.275 2.4316 2.7793 2.4316 2.7793-2.925-0.67125-9.4277-3.5274-9.4277-3.5274 3.1788 2.4875 8.3262 7.6948 9.7637 8.9648 1.42 1.285 3.9746 3.002 3.9746 3.002l1.8574 0.40039s2.078 3.7622 3.4805 3.6484c1.3825-0.11875 2.0347-0.12571 2.4922-1.252 0.44875-1.1362-0.59664-4.3671-1.1816-6.1934-0.58125-1.8075-3.6545-5.1124-5.1445-6.8887-1.4925-1.7688-4.542-7.8436-4.9082-9.0898-0.35875-1.25-1.303-2.3426-1.6055-2.9238-0.31125-0.58375-4.5536-5.3044-5.1836-5.9844-0.315-0.34125-0.61578-0.52704-0.90235-0.5586zm-29.191 15.322-2.3281 16.656s-2.2233 2.761-3.1758 4.041c-0.96375 1.2838-1.6016 4.8164-1.6016 4.8164-1.3412-2.0762 0.20703-5.7715 0.20703-5.7715s-3.1636-2.2571-3.4648-2.2558c-0.3025-0.0188-5.4414 1.8281-5.4414 1.8281s-2.6338 8.1216-2.0625 9.6641c0.54375 1.5425 3.8945 6.9297 3.8945 6.9297l10.791-1.125s2.4619-3.4676 3.6094-4.3301c0.71375-0.56125 1.4244-1.5555 2.002-2.5605 0.0225-0.0375 0.0382-0.0776 0.0645-0.11133 0.0563-0.185 0.12453-0.39219 0.17578-0.58594 0.0525-0.16875 0.10094-0.35563 0.14844-0.54687 0.0238-0.0975 0.0574-0.20852 0.0762-0.32227 0.0362-0.17125 0.0694-0.34711 0.10937-0.53711 0.0188-0.12125 0.0413-0.24914 0.0625-0.36914 0.03-0.16875 0.0631-0.35414 0.0781-0.52539 0.0175-0.1575 0.0448-0.29711 0.0586-0.44336 0.0213-0.16125 0.0366-0.31477 0.0566-0.47852 0.0212-0.16375 0.0244-0.32914 0.0469-0.49414 0.006-0.13875 0.0243-0.29359 0.0293-0.43359 0.0163-0.19 0.0296-0.37875 0.0371-0.5625 0.0112-0.12375 0.0131-0.25555 0.0156-0.37305 0.02-0.1975 0.0247-0.40367 0.0234-0.60742 0.009-0.1 0.0117-0.20969 0.0117-0.30469 0.009-0.22 0.007-0.44414 0.01-0.65039-0.005-0.0788-0.007-0.14867 0.002-0.23242 0-0.23875 0.002-0.46461-0.002-0.69336-0.0137-0.0475-0.006-0.0981-0.006-0.14062-0.002-0.25375-0.009-0.49266-0.0176-0.72266 0.004-0.0225-0.00054-0.0471 0.002-0.0684-0.0112-0.2325-0.0234-0.45766-0.0234-0.66016-0.006-0.015-0.008-0.038-0.0117-0.0605-0.0112-0.43375-0.0286-0.80641-0.0586-1.0977 0.0113-0.0125 0-0.0176 0-0.0176-0.025-0.4575-0.0527-0.72656-0.0527-0.72656l0.48633-13.549c0.0112-0.004 0.0156-0.004 0.0156-0.004-0.80875-0.6875-1.4355-1.4469-1.6992-1.7969-0.10875-0.1225-0.14453-0.20117-0.14453-0.20117s-0.0374-0.02-0.0449-0.0312l-1.8789-0.54492zm-27.801 4.373c-0.11 2.86-3.373 5.248-3.373 5.248l1.4141 0.77149c2.855-0.14 5.8438-4.3359 5.8438-4.3359-1.4025 0.18125-3.8848-1.6836-3.8848-1.6836zm-7.4824 7.2539s7.8595 7.8789 8.7207 8.7227c0.8625 0.85 1.9509 1.6235 1.7559 2.5098-0.2 0.88625-1.3388 5.3224-0.23633 6.4336 1.0938 1.0912-1.2835 6.3711-3.1035 9.3086l4.7012 1.8359s2.2357-5.8255 2.4707-7.8555c0.2325-2.02-0.57703-3.7676-0.95703-4.5176-0.3775-0.73625-0.69196-2.4298-0.31446-3.8086 0.38125-1.3712 0.50242-4.2295-0.92383-5.1758-1.4462-0.93375-12.113-7.4531-12.113-7.4531z" transform="matrix(.8 0 0 -.8 130.68 642.25)" fill="#ffe395"/><path d="m284.63 529.87c0.534-0.088 1.945-0.996 1.945-0.996l0.999 1.831 1.223 4.531c-1.927-4.689-6.87-5.618-6.886-5.671-0.044-0.055 2.041 0.405 2.719 0.305" fill="#ffeebd"/><g><path d="m330.22 528.57c-0.366-0.901-0.889-0.905-1.995-1-1.122-0.091-2.783 2.917-2.783 2.917l-1.486 0.32s-2.045 1.374-3.181 2.402c-1.15 1.017-5.268 5.183-7.811 7.172 0 0 5.203-2.285 7.543-2.821 0 0-0.935 1.202-1.946 2.222-1.01 1.024-6.567 4.556-7.932 6.697 0 0 0.815 5.11 1.68 5.609 0.872 0.488 1.719 1.049 2.114 1.499 0.416 0.443 0.873 0.394 1.377-0.153 0.504-0.543 3.898-4.32 4.147-4.787 0.242-0.464 0.998-1.34 1.285-2.339 0.293-0.998 2.733-5.857 3.927-7.272 1.192-1.421 3.65-4.066 4.115-5.512 0.468-1.46 1.305-4.044 0.946-4.954m-6.148-12.962c-0.417-1.451-0.593-6.211-0.593-6.211l-4.909-3.856-2.001-4.933-5.497-3.583c-2.658 0.583-3.727 1.728-3.727 1.728l7.087 3.522 2.5 5.033 4.748 2.894s0.461 5.956 1.472 7.017c1.023 1.065 4.427 4.238 4.427 4.238-0.566-1.935-3.092-4.407-3.507-5.849m-17.843 25.157c-1.808-1.398-3.818-0.592-3.818-0.592-1.053-0.845-2.806-0.923-2.806-0.923l0.241 2.625c1.86-0.946 2.921 0.044 2.921 0.044 3.605-1.299 4.967 4.195 4.967 4.195-0.051-1.461-0.415-3.351-0.415-3.351 1.637-3.261 4.497-4.978 4.497-4.978-2.324 0.371-5.587 2.98-5.587 2.98m-24.326-11.206c0.017 0.053 4.96 0.981 6.887 5.67l-1.223-4.531-0.999-1.831s-1.412 0.909-1.946 0.996c-0.678 0.1-2.763-0.36-2.719-0.304m-1.814 20.877c0.697 0.71 2.209 2.068 3.765 2.182 2.113 0.167 5.102-0.096 6.131-0.87 1.025-0.772 4.672-0.975 5.741-0.53 0 0 0.907 0.206 1.369-0.297 0.465-0.5 2.196-6.726 2.196-6.726s-1.728-2.865-2.389-3.246c-0.459-0.265-1.504-0.269-2.456-0.115l-1.217 0.354c0.006-0.009 0.036-0.025 0.036-0.025s0.029-0.063 0.116-0.161c0.211-0.28 0.712-0.888 1.359-1.438 0 0-0.004 0-0.012-0.003 0.644-0.533 1.431-1.036 2.236-1.131 0 0-0.599-5.495-1.108-8.323-0.504-2.82-0.952-8.316-1.475-9.428-0.186-0.393-0.406-0.829-0.661-1.28-0.02-0.027-0.032-0.06-0.05-0.09-0.462-0.804-1.031-1.599-1.602-2.048-0.918-0.69-2.887-3.465-2.887-3.465l-8.635-0.9s-2.679 4.311-3.115 5.545c-0.456 1.234 1.651 7.731 1.651 7.731s4.111 1.477 4.352 1.462c0.241 0.001 2.773-1.805 2.773-1.805s-1.238-2.956-0.165-4.617c0 0 0.51 2.827 1.281 3.854 0.762 1.024 2.54 3.233 2.54 3.233l1.863 13.324s-1.809 1.524-2.089 2.757c-0.073 0.308-0.042 0.747 0.038 1.258l0.475 1.937c0.243 0.781 0.469 1.387 0.469 1.387s-0.147-0.142-0.366-0.407c-0.636-0.76-1.852-2.482-1.922-4.447-0.082-2.33 0.216-2.256 0.295-2.192 0.006 0.002 0.026 0.022 0.026 0.022s-0.02-0.02-0.026-0.022c-0.205-0.196-4.571-4.148-9.205-5.245 0 0-1.237-0.072-1.956 0.361-0.711 0.43-1.755 3.706-1.954 4.688-0.218 0.983-0.46 5.452 1.966 9.744 0 0-2.247 9.58-0.451 14.38 0 0-2.633-5.497-2.879-7.844-0.249-2.338 0.722-4.727 0.722-4.727l-2.63-7.539-0.033-2.028s-6.186 3.536-7.594 4.802c-1.417 1.266-3.371 4.645-3.789 6.724-0.351 1.763-1.324 8.238-0.107 15.105 0 0-2.294-7.219-2.283-13.881-0.003-6.656 5.181-15.738 5.181-15.738s-5.13 2.096-5.675 2.528c-0.555 0.421-2.014 1.765-2.459 2.836-0.448 1.077-3.987 9.327-3.833 13.619 0.107 2.828 1.131 6.71 2.574 10.126 0.038 0.074 0.078 0.161 0.105 0.246 0 0-0.002-0.01-0.008-0.014 0.072 0.176 0.151 0.353 0.231 0.534 0.045 0.087 0.071 0.16 0.116 0.245 0.115 0.243 0.22 0.473 0.343 0.703 0.061 0.142 0.131 0.279 0.2 0.409 0.064 0.12 0.114 0.23 0.189 0.356 0.083 0.168 0.168 0.328 0.26 0.493 0.047 0.083 0.097 0.16 0.125 0.242 0.143 0.224 0.267 0.437 0.388 0.646 0.048 0.065 0.086 0.125 0.122 0.186 0.147 0.232 0.295 0.451 0.44 0.662 2.653 3.803 11.532 11.753 15.624 12.577 1.835 0.367 3.088 0.381 3.908 0.282 0.127-0.06 0.112-0.129 0.112-0.129s-0.805-0.484-1.723-3.254c0.003 0 0.003 0.003 0.003 0.003-0.534-1.646-1.108-4.088-1.55-7.718l0.345 0.533 0.241 0.595 4.04 7.79s4.051 4.723 5.641 6.044c1.592 1.314 8.146 5.06 8.146 5.06s1.854 4.397 3.105 7.441c1.029 2.502 5.828 9.694 8.459 13.085 0.555 0.72 1.009 1.268 1.319 1.566 0 0 0.625-1.11 2.901-0.621 0.128 0.032 0.262 0.05 0.402 0.094 0 0-0.965 0.114-1.358 0.448-0.392 0.353-2.399 5.529-3.223 7.264-0.837 1.745-1.841 3.066-2.158 3.411 0 0 3.177-1.833 3.585-2.155 0.395-0.353 3.302-4.913 3.666-6.145 0 0 3.42 0.37 4.791 0.154 1.371-0.208 3.665-1.669 4.22-2.262 0.551-0.595 1.285-2.719 1.285-2.719s1.213 2.303 1.645 3.095c0.435 0.802 2.55 3.236 2.81 3.471 0.244 0.238 1.658 0.99 2.078 1.546 0.428 0.554 2.587 4.369 4.163 5.204l-0.879-2.076-0.504-2.419s-0.213-3.807-4.321-5.279c0 0 1.269-5.399 1.532-7.034 0 0 1.664-3.227 1.881-3.883 0.22-0.649 0.112-1.38-0.061-1.774-0.173-0.405-0.841-3.053-1.429-3.686 0 0-0.587-2.738-1.202-4.097 0 0 0.266-3.98 0.023-6.169-0.243-2.182-0.756-5.241-0.756-5.241s1.849-2.499 2.075-3.161c0.215-0.659 0.43-1.399 0.17-1.948-0.266-0.566-1.48-2.713-2.458-3.164 0 0-0.597-0.544-0.444-1.037 0.136-0.492 0.488-1.883-0.022-2.596-0.513-0.715-0.856-1.107-2.543-0.639-1.682 0.46-2.868-0.865-4.077-0.745-1.217 0.129-1.79 2.181-1.989 3.476-0.199 1.314-0.771 1.175-1.399 1.597-0.627 0.427-1.904 1.205-2.213 3.726-0.065 0.542-0.128 1.08-0.178 1.603 0.005-0.003-0.006 0-0.076 0.77-0.143 1.632-0.28 3.072-0.577 3.755-0.454 0.988-2.689 1.958-3.335 2.229-0.637 0.262-0.672 1.641-0.672 1.641l-1.424 7.513s-0.184 1.793 0.454 3.964c0.659 2.174 2.245 10.133 2.245 10.133l-4.909-16.775s-0.8-1.989-0.523-3.138c0.279-1.157 3.05-12.205 3.22-14.162 0.177-1.952 1.226-8.878 1.226-8.878s-6.324 4.686-7.534 4.967c-1.203 0.29-5.299-0.614-6.765-1.053l2.422-2.514s2.69-6.338 3.175-8.639c0.489-2.281-0.078-6.818-0.078-6.818s-2.23 3.739-3.326 4.505c-1.113 0.773-3.694 1.432-3.694 1.432s2.223-1.541 3.255-4.416c1.033-2.874 0.684-5.788 0.684-5.788s-4.025 0.876-5.37 1.894l-4.383-0.08s-4.088-0.904-4.735-5.183c0 0 0.145 0.176 0.394 0.428m6.701-53.028c0.453-0.999-1.042-8.739-1.042-8.739-0.634-0.589-3.209-0.75-3.209-0.75s2.206 7.005 2.043 9.082c-0.178 2.083-2.63 5.104-2.714 6.088-0.085 0.973 0.966 3.132 0.881 3.99-0.097 0.859-1.595 3.361-1.595 3.361l1.832-0.063s1.415-1.516 1.716-3.119c0.313-1.6-0.335-2.672-0.633-4.011-0.293-1.336 2.27-4.837 2.721-5.839m-20.003 36.519s2.61 1.91 2.698 4.198c0 0 1.986-1.492 3.108-1.347 0 0-2.391-3.358-4.675-3.469l-1.131 0.618zm6.183-24.653-3.761 1.467c1.456 2.35 3.357 6.575 2.482 7.448-0.882 0.889 0.029 4.438 0.189 5.147 0.156 0.709-0.714 1.327-1.404 2.007-0.689 0.675-6.977 6.978-6.977 6.978s8.533-5.214 9.69-5.961c1.141-0.758 1.045-3.044 0.74-4.142-0.302-1.103-0.051-2.458 0.251-3.046 0.304-0.601 0.952-1.998 0.766-3.614-0.188-1.625-1.976-6.284-1.976-6.284m35.007 59.836s2.053-3.648 2.421-4.956c0.354-1.317-0.623-8.339-0.993-9.212-0.355-0.882-6.81-8.848-6.81-8.848s3.854 7.819 4.616 10.708c0.749 2.893 0.878 6.296 1.006 7.67 0.133 1.383-0.24 4.638-0.24 4.638m11.708 3.123c-0.368-0.334-3.823-0.739-3.823-0.739s-3.576 0.739-4.163 1.111c-0.61 0.383-1.15 2.503-1.041 3.211 0.116 0.697 0.046 3.603 0.046 3.603s1.103-1.094 1.434-1.636c0.341-0.529 0.603-3.005 1.107-3.56 0.5-0.548 2.772-1.062 2.772-1.062l4.345 0.725s-0.32-1.316-0.677-1.653m12.29-39.197c0.056 1.458-1.108 3.191-1.339 3.526-1.251 1.622-4.507 5.851-4.969 6.511-0.436 0.633-2.352 5.558-2.537 6.346-0.231 0.943-1.098 1.784-1.463 2.111-0.081 0.091-3.207 4.085-3.714 4.68 0.036 0.8 0.909 8.521 0.909 8.521s-0.671 3.002-0.996 4.433c0.732 0.177 1.488 0.345 1.488 0.345 1.06 0.228 2.087 1.045 2.3 1.212l0.178 0.152s0.494 0.958 0.747 1.459c1.503 0.545 2.201 2.057 2.373 2.965 0.012 0.044 0.241 1.717 0.37 2.552 0.114 0.091 0.234 0.173 0.309 0.211 0.735 0.334 1.17 1.145 1.333 1.472 1.05 2.399 1.248 3.319 1.261 3.743 0 0.134 0.003 0.222-0.013 0.29-0.106 0.616-0.465 1.52-0.535 1.705l-0.041 0.086s-1.242 2.017-1.575 2.559c0.088 0.697 0.566 4.869 0.566 4.869s-0.194 4.921-0.21 5.306c0.487 1.569 1.354 4.11 1.752 4.781 0.636 1.077 1.239 3.583 1.291 5.107 0.011 0.34 0 0.627-0.043 0.827-0.228 1.042-1.548 3.658-2.068 4.462-0.22 0.378-0.882 2.392-1.474 4.376 1.055 0.486 2.329 1.358 2.965 2.661 0.916 1.899 1.878 4.086 2.045 5.861l0.795 6.545-1.668-0.375c-1.362-0.328-3.945-2.077-4.348-3.47-0.184-0.582-1.837-2.94-2.51-3.491-0.238-0.184-0.569-0.388-0.9-0.565-0.618 1.201-1.534 2.285-1.553 2.303-1.4 1.631-2.62 2.459-4.201 2.859-3.581 0.91-6.288 1.664-6.895 1.926-0.633 0.287-1.057 0.787-1.205 1.024 0.003 0.038-0.009 0.062 0 0.117 0.01 0.415 0.111 1.196 0.23 1.913l0.423 2.461-2.184-1.213c-1.318-0.719-3.007-3.023-3.212-4.91-0.043-0.369-0.056-0.72-0.074-1.073-2.677 1.217-4.686 0.928-4.793 0.906l-2.459-0.391 1.847-1.677c0.952-0.861 1.822-2.3 2.388-3.393-1.144-0.137-2.363-0.259-2.868-0.193-0.679 0.079-0.849 0.265-1.407 0.858l-0.155 0.164c-0.366 0.399-1.63 2.497-2.636 4.281l-1.89 3.367-0.35-3.851c-0.009-0.047-0.009-0.093-0.009-0.137-0.027-0.97 0.381-3.101 3.534-9.645l0.121-0.243c0.14-0.292 0.294-0.611 2.165-1.563-0.779-0.274-1.667-0.611-2.71-1.018-1.236-0.475-2.926-1.125-3.33-1.172-0.559-0.029-2.516 0.636-3.995 1.285 0 0 1.355-4.572 3.132-5.299 0.588-0.252 1.483-0.43 2.41-0.57-0.857-0.537-1.582-1.044-1.892-1.287-0.839-0.633-6.237-2.153-7.495-2.111-0.606 0.028-2.141 0.957-3.191 1.809l-2.3 1.882 0.349-2.951c0.025-0.153 0.523-4.033 4.601-5.518 1.424-0.506 2.979-0.62 4.394-0.553-1.418-1.482-2.986-3.351-4.538-5.244l-0.864-1.051c-0.661-0.75-4.628-2.382-5.977-2.637-0.897-0.17-2.328 0.017-2.805 0.108l-3.608 0.715 2.502-2.704c0.56-0.606 2.643-2.282 4.338-2.353 0.515-0.014 1.505 0.103 2.55 0.27-0.151-0.193-0.292-0.352-0.409-0.51-2.159 0.003-7.873-0.441-8.748-0.835-0.348-0.161-1.489-1.091-2.825-2.238h-0.004c-0.007-0.004-0.018 0-0.026-0.021 0.013 0.021 0.019 0.017 0.03 0.021-0.006 0.557 0.003 1.084 0.065 1.375 0.168 0.813 2.606 3.878 2.606 3.878s-3.347-1.651-4.069-2.322c-0.698-0.658-2.048-3.892-2.048-3.892l0.227-1.04 0.147-0.678c0.034 0.035-0.145-0.125-0.273-0.239-0.442-0.393-0.85-0.76-1.196-1.078-0.306-0.268-0.446-0.387-0.434-0.387-0.068 0.185-0.121 0.378-0.162 0.598-0.394 1.945 0.12 4.825 1.825 6.515 2.131 2.11 4.709 3.854 4.709 3.854s0.809 4.051 0.775 3.983c0.048 0.447-0.194 0.932-1.045 1.325-1.615 0.729-5.506 2.929-7.567 2.862-2.048-0.056-9.589-0.466-9.589-0.466s8.009-1.665 9.359-2.401c1.34-0.725 3.549-3.82 3.549-3.82 1.83 0.236 3.205 0.634 4.035 1.038-1.593-1.454-3.96-2.96-3.96-2.96s-3.193-1.122-5.182-2.963c-1.978-1.843-2.754-8.119-2.754-8.119s-1.822 2.538-0.613 5.778c1.215 3.237 5.849 6.224 5.849 6.224-2.627-0.315-6.57-3.456-7.138-4.118-0.578-0.662-2.698-2.651-1.882-6.652 0.575-2.802 2.561-5.458 3.699-6.783-1.505-1.755-2.873-3.648-3.503-5.313-1.251-3.254-2.582-8.026-2.752-12.783-0.038-1.097 0.381-3.019 0.427-4.022 0.226-5.131 6.278-17.146 7.057-18.589-0.034-0.107-0.79-0.869-0.894-1.097-0.291-0.606-0.53-1.263-0.551-1.953-0.038-1.005 0.382-2.075 1.761-3.208 1.22-0.977 4.456-2.945 6.12-3.934-0.285-0.576-0.562-1.261-0.576-1.836-0.037-0.966 0.104-1.397 0.619-1.93l0.069-0.068s0.369-0.398 0.728-0.782c-0.563-1.192-3.378-7.122-3.378-7.122l2.349-3.39 8.692-3.284s1.885-0.384 2.643-0.287c0.317-0.882 0.736-1.96 0.903-2.437-0.119-0.381-0.204-0.759-0.218-1.134-0.047-1.228 0.426-2.408 1.039-3.188 0.326-0.407 0.469-0.867 0.466-1.04-0.711-0.785-2.199-4.702-3.317-7.33l-0.293-0.662 0.459-0.568c0.061-0.065 0.763-0.554 2.678-2.297 2.14-1.948 6.048-2.432 6.204-2.449l0.286-0.033 5.008 1.846 0.085 0.732c0.197 1.679 0.751 6.206 0.849 6.859 0.044 0.228 0.076 0.551 0.084 0.902 0.036 1.058-0.059 2.517-0.455 3.369l-0.791 1.533c-0.401 0.726-1.134 2.086-1.237 2.425-0.016 0.094-0.023 0.241-0.016 0.399 0.009 0.469 0.139 1.122 0.247 1.371 0.298 0.647 0.36 1.802 0.377 2.265l0.013 0.225s-0.592 1.705-1.006 2.906c1.566 0.261 4.592 0.761 4.592 0.761l0.283 0.339c1.312 1.569 3.964 4.695 4.54 5.302 0.863 0.926 1.701 3.429 1.936 4.186l0.04 0.098 0.009 0.1c0.385 2.96 1.021 7.803 1.103 8.254 0 0 0.915 5.983 1.328 7.974 1.272-0.301 2.165 0.312 2.729 0.54 1.262-0.687 2.768 0.492 3.556 0.794 1.413-0.961 4.021-2.505 6.032-3.083 2.228-0.648 8.373-4.553 9.146-5.047 1.133-0.723 1.159-2.051 1.14-2.752-0.01-0.104-0.494-2.064-0.494-2.064-0.044-0.866-1.522-4.811-3.003-8.783-0.562-0.314-1.873-1.002-2.308-1.416-0.422-0.386-1.339-3.128-2.2-4.176-2.965 1.354-4.985 0.851-5.305 0.76-0.848-0.21-4.577-2.132-5.466-3.237-0.878-1.072-1.626-4.432-1.687-5.988-0.015-0.706 0.563-2.15 1.036-3.094 0 0 2.115-1.913 3.157-2.59 0 0 3.015-1.45 3.882-1.596l0.486-0.097c0.571-0.132 1.276-0.278 2.016 0.234 0.444 0.311 5.094 3.138 6.033 3.891l0.238 0.19s1.715 4.181 1.911 4.65c0.825 0.72 3.123 2.742 3.736 3.504 0.589 0.717 0.852 2.264 1.224 4.711l0.358 2.033c0.202 0.795 1.018 2.048 1.737 3.155l0.97 1.541c0.826 1.415 1.397 3.829 1.579 4.644 0.428 0.606 0.908 1.195 1.084 1.33 0.662 0.486 1.462 1.74 1.699 2.115l0.19 0.296-0.005 0.366c-0.036 1.723-1.125 4.008-1.096 4.866"/><path d="m259.57 594.52s-4.025 2.329-6.187 2.972c-2.172 0.614-3.379 1.209-7.643 0.809-4.255-0.387-5.26-1.584-7.375-3.153 0 0 6.922 2.07 8.013 1.899 0 0-1.254-0.631-2.661-1.685-1.406-1.04-5.043-3.241-11.041-2.48 0 0 1.626-1.254 1.735-1.286 2.621-0.972 5.162-1.014 7.247-0.132 2.088 0.885 8.491 3.665 13.153 0.219 0 0 3.657 2.73 4.759 2.837"/><path d="m308.52 614.74s3.706-4.219 3.706-7.469c0-3.249-0.684-3.364-0.684-3.364l2.795-7.529s-6.415 6.075-7.015 9.469c-0.512 2.906 1.481 2.793 1.481 2.793s-0.739 4.962-0.283 6.1"/></g><path d="m308.06 605.58s0.69-0.42 1.198-0.148c0.513 0.271 0.903 0.93 0.903 0.93s-0.059-1.441-0.781-1.892c-0.719-0.449-1.32 1.11-1.32 1.11" fill="#fff"/><g><path d="m324.67 607.06-3.119 6.734 1.33-8.937 1.789 2.203z"/><path d="m316.6 606.84-3.272 8.416 0.834-8.167-1.233-2.695 3.671 2.446z"/><path d="m316.3 583.53c-0.146 0.539-0.634 1.692-1.078 1.884-0.434 0.19-1.915 0.335-1.915 0.335s-0.925-1.199-1.284-1.623c-0.369-0.422-0.214-1.049 0.112-1.683 0.326-0.627 4.143-4.538 4.143-4.538l-1.198 3.554s1.384 1.541 1.22 2.071"/><path d="m325.05 583.73c-0.239 0.287-0.57 0.567-0.927 0.7-0.323 0.109-0.667 0.107-0.967-0.173-0.639-0.589-1.197-1.333-1.31-2.244-0.117-0.917 0.475-1.637 0.475-1.637l0.639-0.014c0.052 0.019 0.079 0.034 0.108 0.04 0.056 0.044 0.135 0.092 0.229 0.174 0.464 0.356 1.309 1.087 1.385 1.642 0.104 0.761 0.809 0.958 0.368 1.512"/></g><g stroke="#003831" fill="#003831"><path d="m307.21 556.81c-0.762-2.889-4.616-10.708-4.616-10.708s6.455 7.966 6.81 8.848c0.37 0.873 1.347 7.895 0.993 9.212-0.368 1.308-2.421 4.956-2.421 4.956s0.373-3.255 0.24-4.638c-0.128-1.374-0.257-4.777-1.006-7.67"/><path d="m321.68 510.21-4.748-2.895-2.5-5.033-7.087-3.521s1.069-1.146 3.727-1.729l5.497 3.583 2.001 4.934 4.909 3.855s0.176 4.761 0.593 6.211c0.415 1.443 2.941 3.914 3.507 5.849 0 0-3.404-3.172-4.427-4.237-1.011-1.061-1.472-7.017-1.472-7.017"/><path d="m284.71 507.26c-0.301 1.603-1.716 3.119-1.716 3.119l-1.832 0.063s1.498-2.502 1.595-3.361c0.085-0.858-0.966-3.017-0.881-3.99 0.084-0.984 2.536-4.005 2.714-6.088 0.163-2.077-2.044-9.082-2.044-9.082s2.576 0.161 3.21 0.75c0 0 1.495 7.74 1.041 8.739-0.45 1.002-3.014 4.503-2.721 5.839 0.299 1.339 0.947 2.411 0.634 4.011"/><path d="m307.32 542.77s0.363 1.89 0.415 3.352c0 0-1.363-5.495-4.967-4.196 0 0-1.061-0.99-2.921-0.044l-0.242-2.625s1.754 0.078 2.806 0.923c0 0 2.011-0.806 3.818 0.592 0 0 3.264-2.609 5.587-2.98 0 0-2.859 1.717-4.496 4.978"/></g><path d="m276.56 576.88s6.758 6.995 10.221 8.177c3.458 1.179 8.648 3.3 9.907 4.952 1.256 1.653 2.594 10.222 3.931 13.919 1.338 3.695 3.537 9.75 3.537 9.75s-4.56-6.369-6.446-10.614c-1.888-4.248-4.404-10.144-4.404-10.144s-7.391-4.247-9.985-6.842c-2.594-2.593-6.761-9.198-6.761-9.198" fill="#b38f4f"/><path d="m322.03 587.08c0.608 0.249 0.954 0.211 0.954 0.211s0.628 3.913 0.776 6.17c0.145 2.247-0.286 5.357-0.286 5.357s0.302 0.901 0.81 2.499c0.504 1.586 0.651 3.844 0.651 3.844s-0.426-0.541-0.551-0.764c0 0-2.912-3.334-3.368-4.96-0.463-1.633-0.155-5.727 0.516-7.971 0.12-0.41 0.24-1.469 0.24-1.469l0.22-1.115s-1.069-0.598-1.688-1.404c-0.609-0.798-0.117-1.81-0.117-1.81s0.888 1.031 1.843 1.412" fill="#b38f4f"/><g fill="#003831"><path d="m291.39 615.29-1.699 0.196c1.139-1.346 2.7-1.399 2.7-1.399l5.758 3.834-6.759-2.631z"/><path d="m293.75 611.94s-2.302-2.404-3.092-2.764c-0.805-0.368-6.364-2.246-7.92-1.932-1.561 0.313-3.339 1.945-3.339 1.945 1.098-2.518 3.275-3.647 3.275-3.647s7.12 1.447 8.048 1.939c0.935 0.492 3.028 4.459 3.028 4.459"/><path d="m287.63 602.06c-1.68-2.402-5.552-6.526-6.109-7.052-0.682-0.633-4.759-1.274-5.68-1.63-0.932-0.359-3.002-0.016-3.002-0.016 0.754-0.68 1.65-1.241 2.822-1.15 1.18 0.088 4.58 0.227 6.194 1.472 1.232 0.952 4.371 6.037 5.775 8.376"/><path d="m259.6 580.41c-0.522 1.84-1.214 4.838-0.552 6.211 0.988 2.061 5.965 5.799 5.965 5.799s-0.63 0.813-4.931-2.568c-3.447-2.693-2.666-8.809-2.201-11.143 0.619 0.635 1.203 1.206 1.719 1.701"/><path d="m257.55 578.37c-1.572 0.649-5.043 5.588-5.043 5.588 0.542-2.566 3.771-6.597 3.92-6.788 0.372 0.413 0.751 0.824 1.123 1.2"/><path d="m265.54 585.75-0.232 0.521 0.091 2.601-1.01-2.699 0.327-1.125c0.283 0.232 0.546 0.471 0.824 0.702"/><path d="m314.7 627.53c1.541-0.457 4.339-2.774 4.69-3.845 0.355-1.045-0.676-4.279-0.676-4.279s2.461 3.056 2.122 4.504c-0.335 1.449-2.125 2.685-4.158 4.202-2.041 1.511-8.404 2.386-9.427 3.212-1.001 0.809-0.4 3.155-0.4 3.155-5.297-5.303 6.292-6.502 7.849-6.949"/><path d="m301.6 622.9-0.601 1.594s-3.399-0.138-3.927-0.12c-0.52 0.014-0.899 0.158-1.535 0.829-0.633 0.684-2.955 5.089-2.955 5.089 0.326-1.849 1.525-4.893 3.175-6.39 1.634-1.502 5.843-1.002 5.843-1.002"/></g><path d="m310.01 608.53s1.093-0.419 1.204-2.313c0.088-1.531-0.87-2.011-0.87-2.011l4.021-7.817c0.001-0.001 0.004-0.005 0.004-0.005l-2.793 7.529s0.684 0.114 0.684 3.363c0 3.251-3.706 7.469-3.706 7.469 0.278-1.141 1.046-4.281 1.219-5.017 0.208-0.899 0.237-1.198 0.237-1.198" fill="#b38f4f"/></g></g></svg>
